G04 MADE WITH FRITZING*
G04 WWW.FRITZING.ORG*
G04 DOUBLE SIDED*
G04 HOLES PLATED*
G04 CONTOUR ON CENTER OF CONTOUR VECTOR*
%ASAXBY*%
%FSLAX23Y23*%
%MOIN*%
%OFA0B0*%
%SFA1.0B1.0*%
%ADD10C,0.078000*%
%ADD11C,0.075000*%
%ADD12C,0.075361*%
%ADD13C,0.083307*%
%ADD14C,0.080000*%
%ADD15C,0.062992*%
%ADD16R,0.101895X0.101895*%
%ADD17R,0.181102X0.039370*%
%ADD18R,0.133858X0.062992*%
%ADD19R,0.083307X0.083307*%
%ADD20R,0.080000X0.080000*%
%ADD21R,0.062992X0.062992*%
%ADD22C,0.032000*%
%ADD23C,0.024000*%
%ADD24C,0.048000*%
%LNCOPPER1*%
G90*
G70*
G54D10*
X2274Y1838D03*
X2274Y1132D03*
X702Y1132D03*
X701Y1834D03*
X2274Y1838D03*
X2274Y1132D03*
X702Y1132D03*
X701Y1834D03*
G54D11*
X501Y634D03*
X501Y334D03*
G54D12*
X354Y131D03*
X454Y131D03*
X554Y131D03*
X654Y131D03*
X754Y131D03*
X854Y131D03*
X954Y131D03*
X1054Y131D03*
X1154Y131D03*
X1254Y131D03*
X1354Y131D03*
X1454Y131D03*
X1554Y131D03*
X1654Y131D03*
X1754Y131D03*
X1854Y131D03*
X1954Y131D03*
X2054Y131D03*
X2154Y131D03*
X2254Y131D03*
X2254Y231D03*
X2154Y231D03*
X2054Y231D03*
X1954Y231D03*
X1854Y231D03*
X1754Y231D03*
X1654Y231D03*
X1554Y231D03*
X1454Y231D03*
X1354Y231D03*
X1254Y231D03*
X1154Y231D03*
X1054Y231D03*
X954Y231D03*
X854Y231D03*
X754Y231D03*
X654Y231D03*
X554Y231D03*
X454Y231D03*
X354Y231D03*
G54D11*
X1501Y434D03*
X1501Y834D03*
G54D13*
X2354Y531D03*
X2354Y731D03*
X2354Y531D03*
X2354Y731D03*
G54D14*
X201Y1834D03*
X201Y1634D03*
X201Y1834D03*
X201Y1634D03*
G54D15*
X351Y734D03*
X351Y634D03*
X351Y534D03*
X351Y434D03*
X1961Y742D03*
X1961Y642D03*
X1961Y542D03*
X1961Y442D03*
X351Y734D03*
X351Y634D03*
X351Y534D03*
X351Y434D03*
X1961Y742D03*
X1961Y642D03*
X1961Y542D03*
X1961Y442D03*
X351Y734D03*
X351Y634D03*
X351Y534D03*
X351Y434D03*
X1961Y742D03*
X1961Y642D03*
X1961Y542D03*
X1961Y442D03*
G54D16*
X702Y1132D03*
X2274Y1132D03*
X702Y1132D03*
X2274Y1838D03*
X701Y1834D03*
X702Y1132D03*
X2274Y1132D03*
X702Y1132D03*
X2274Y1838D03*
X701Y1834D03*
G54D17*
X301Y998D03*
X301Y1077D03*
X301Y1156D03*
X301Y1234D03*
G54D18*
X96Y904D03*
X96Y1329D03*
G54D19*
X2354Y531D03*
X2354Y531D03*
G54D20*
X201Y1834D03*
X201Y1834D03*
G54D21*
X1961Y742D03*
X1961Y742D03*
X1961Y742D03*
G54D22*
X1351Y1185D02*
X1000Y934D01*
D02*
X1000Y934D02*
X451Y934D01*
D02*
X2001Y1183D02*
X1351Y1185D01*
D02*
X451Y1235D02*
X386Y1235D01*
D02*
X451Y934D02*
X451Y1235D01*
G54D23*
D02*
X50Y35D02*
X50Y433D01*
D02*
X50Y433D02*
X328Y619D01*
G54D22*
D02*
X702Y1634D02*
X702Y1189D01*
D02*
X237Y1634D02*
X702Y1634D01*
G54D23*
D02*
X638Y104D02*
X599Y33D01*
D02*
X599Y33D02*
X50Y35D01*
G54D22*
D02*
X2218Y1143D02*
X2001Y1183D01*
G54D23*
D02*
X1935Y641D02*
X1651Y635D01*
D02*
X1651Y635D02*
X1518Y811D01*
D02*
X1935Y541D02*
X1650Y534D01*
D02*
X1650Y534D02*
X1524Y450D01*
D02*
X735Y256D02*
X601Y434D01*
D02*
X601Y434D02*
X377Y434D01*
D02*
X1036Y257D02*
X852Y536D01*
D02*
X852Y536D02*
X377Y534D01*
G54D22*
D02*
X2352Y184D02*
X2286Y149D01*
G54D23*
D02*
X631Y253D02*
X550Y334D01*
D02*
X550Y334D02*
X529Y334D01*
D02*
X477Y650D02*
X373Y719D01*
G54D22*
D02*
X450Y1834D02*
X237Y1834D01*
D02*
X643Y1834D02*
X450Y1834D01*
D02*
X2323Y708D02*
X1988Y461D01*
G54D24*
D02*
X2343Y774D02*
X2301Y936D01*
D02*
X2301Y936D02*
X2283Y1070D01*
D02*
X2501Y1684D02*
X2502Y683D01*
D02*
X2502Y683D02*
X2384Y563D01*
D02*
X2326Y1802D02*
X2501Y1684D01*
G54D22*
D02*
X2353Y493D02*
X2352Y184D01*
G54D23*
D02*
X1751Y985D02*
X1944Y762D01*
D02*
X1199Y836D02*
X1402Y985D01*
D02*
X1402Y985D02*
X1751Y985D01*
D02*
X901Y830D02*
X1199Y836D01*
G54D22*
D02*
X2100Y335D02*
X2323Y508D01*
D02*
X1199Y335D02*
X2100Y335D01*
D02*
X901Y830D02*
X1199Y335D01*
D02*
X302Y836D02*
X901Y830D01*
D02*
X301Y984D02*
X302Y836D01*
G04 End of Copper1*
M02*