; NON-PLATED HOLES START AT T1
; THROUGH (PLATED) HOLES START AT T100
M48
INCH
T1C0.125984
T100C0.035000
T101C0.031497
T102C0.040000
T103C0.038000
T104C0.043307
T105C0.040639
%
T1
X008917Y011660
X024442Y001688
X001613Y001603
X020860Y018078
T100
X005005Y006343
X015006Y004343
X005005Y003343
X015006Y008343
T101
X019614Y006420
X003506Y006343
X019614Y005420
X003506Y005343
X003506Y004343
X003506Y007343
X019614Y004420
X019614Y007420
T102
X002005Y016343
X002005Y018343
T103
X022740Y011319
X007018Y011319
X007005Y018343
X022740Y018376
T104
X023536Y007312
X023536Y005312
T105
X008535Y002312
X017536Y001312
X006535Y001312
X020535Y002312
X018535Y002312
X008535Y001312
X003535Y002312
X011535Y001312
X010535Y001312
X004535Y001312
X022536Y002312
X004535Y002312
X010535Y002312
X016535Y001312
X009535Y001312
X003535Y001312
X005535Y002312
X011535Y002312
X015535Y002312
X014535Y001312
X018535Y001312
X017536Y002312
X021535Y001312
X012535Y001312
X006535Y002312
X005535Y001312
X020535Y001312
X014535Y002312
X009535Y002312
X015535Y001312
X007535Y002312
X007535Y001312
X019535Y001312
X019535Y002312
X013535Y002312
X012535Y002312
X013535Y001312
X021535Y002312
X022536Y001312
X016535Y002312
T00
M30
