G04 MADE WITH FRITZING*
G04 WWW.FRITZING.ORG*
G04 DOUBLE SIDED*
G04 HOLES PLATED*
G04 CONTOUR ON CENTER OF CONTOUR VECTOR*
%ASAXBY*%
%FSLAX23Y23*%
%MOIN*%
%OFA0B0*%
%SFA1.0B1.0*%
%ADD10C,0.078000*%
%ADD11C,0.075000*%
%ADD12C,0.075361*%
%ADD13C,0.062992*%
%ADD14C,0.083307*%
%ADD15C,0.080000*%
%ADD16R,0.101895X0.101895*%
%ADD17R,0.062992X0.062992*%
%ADD18R,0.083307X0.083307*%
%ADD19R,0.080000X0.080000*%
%LNCOPPER0*%
G90*
G70*
G54D10*
X2274Y1838D03*
X2274Y1132D03*
X702Y1132D03*
X701Y1834D03*
X2274Y1838D03*
X2274Y1132D03*
X702Y1132D03*
X701Y1834D03*
G54D11*
X501Y634D03*
X501Y334D03*
G54D12*
X354Y131D03*
X454Y131D03*
X554Y131D03*
X654Y131D03*
X754Y131D03*
X854Y131D03*
X954Y131D03*
X1054Y131D03*
X1154Y131D03*
X1254Y131D03*
X1354Y131D03*
X1454Y131D03*
X1554Y131D03*
X1654Y131D03*
X1754Y131D03*
X1854Y131D03*
X1954Y131D03*
X2054Y131D03*
X2154Y131D03*
X2254Y131D03*
X2254Y231D03*
X2154Y231D03*
X2054Y231D03*
X1954Y231D03*
X1854Y231D03*
X1754Y231D03*
X1654Y231D03*
X1554Y231D03*
X1454Y231D03*
X1354Y231D03*
X1254Y231D03*
X1154Y231D03*
X1054Y231D03*
X954Y231D03*
X854Y231D03*
X754Y231D03*
X654Y231D03*
X554Y231D03*
X454Y231D03*
X354Y231D03*
G54D13*
X351Y734D03*
X351Y634D03*
X351Y534D03*
X351Y434D03*
X1961Y742D03*
X1961Y642D03*
X1961Y542D03*
X1961Y442D03*
X351Y734D03*
X351Y634D03*
X351Y534D03*
X351Y434D03*
X1961Y742D03*
X1961Y642D03*
X1961Y542D03*
X1961Y442D03*
X351Y734D03*
X351Y634D03*
X351Y534D03*
X351Y434D03*
X1961Y742D03*
X1961Y642D03*
X1961Y542D03*
X1961Y442D03*
G54D11*
X1501Y434D03*
X1501Y834D03*
G54D14*
X2354Y531D03*
X2354Y731D03*
X2354Y531D03*
X2354Y731D03*
G54D15*
X201Y1834D03*
X201Y1634D03*
X201Y1834D03*
X201Y1634D03*
G54D16*
X702Y1132D03*
X2274Y1132D03*
X702Y1132D03*
X2274Y1838D03*
X701Y1834D03*
X702Y1132D03*
X2274Y1132D03*
X702Y1132D03*
X2274Y1838D03*
X701Y1834D03*
G54D17*
X1961Y742D03*
X1961Y742D03*
X1961Y742D03*
G54D18*
X2354Y531D03*
X2354Y531D03*
G54D19*
X201Y1834D03*
X201Y1834D03*
G04 End of Copper0*
M02*