<?xml version='1.0' encoding='UTF-8' standalone='no'?>
<!-- Created with Fritzing (http://www.fritzing.org/) -->
<svg xmlns="http://www.w3.org/2000/svg" x="0in" xmlns:svg="http://www.w3.org/2000/svg" width="2.59843in"  baseProfile="tiny" version="1.2" y="0in" height="1.97825in" viewBox="0 0 187.087 142.434">
 <g partID="57712">
  <g id="silkscreen">
   <rect x="0.288" width="186.511" stroke="black" stroke-width="0.576" y="0.288" fill="none" height="141.858"/>
  </g>
 </g>
 <g partID="57710">
  <g id="board">
   <rect id="boardoutline" x="0.288" width="186.511" fill-opacity="0.5" stroke="black" stroke-width="0.5" y="0.288" fill="none" height="141.858"/>
  </g>
 </g>
 <g partID="854756110">
  <g transform="translate(169.165,107.971)">
   <g id="silkscreen">
    <text id="label" xmlns:xml="http://www.w3.org/XML/1998/namespace" x="8.65469" font-size="5.76979" xml:space="preserve" text-anchor="middle" font-family="OCRA" stroke-width="0" y="5.19282" fill="black">GND</text>
   </g>
  </g>
 </g>
 <g partID="854756000">
  <g transform="translate(149.958,81.6815)">
   <g id="silkscreen">
    <text id="label" xmlns:xml="http://www.w3.org/XML/1998/namespace" x="8.65469" font-size="5.76979" xml:space="preserve" text-anchor="middle" font-family="OCRA" stroke-width="0" y="5.19282" fill="black">+5V</text>
   </g>
  </g>
 </g>
 <g partID="854755660">
  <g transform="translate(3.24536,0.177564)">
   <g id="silkscreen">
    <text id="label" xmlns:xml="http://www.w3.org/XML/1998/namespace" x="10.8884" font-size="7.25892" xml:space="preserve" text-anchor="middle" font-family="OCRA" stroke-width="0" y="6.53304" fill="black">In-</text>
   </g>
  </g>
 </g>
 <g partID="854755640">
  <g transform="translate(3.63843,27.4657)">
   <g id="silkscreen">
    <text id="label" xmlns:xml="http://www.w3.org/XML/1998/namespace" x="10.8884" font-size="7.25892" xml:space="preserve" text-anchor="middle" font-family="OCRA" stroke-width="0" y="6.53304" fill="black">In+</text>
   </g>
  </g>
 </g>
 <g partID="854755620">
  <g transform="translate(71.011,33.4046)">
   <g id="silkscreen">
    <text id="label" xmlns:xml="http://www.w3.org/XML/1998/namespace" x="34.2796" font-size="13.7119" xml:space="preserve" text-anchor="middle" font-family="OCRA" stroke-width="0" y="12.3407" fill="black">- - ></text>
   </g>
  </g>
 </g>
 <g partID="854755590">
  <g transform="translate(62.0532,21.1493)">
   <g id="silkscreen">
    <text id="label" xmlns:xml="http://www.w3.org/XML/1998/namespace" x="41.1358" font-size="13.7119" xml:space="preserve" text-anchor="middle" font-family="OCRA" stroke-width="0" y="12.3407" fill="black">LM2596</text>
   </g>
  </g>
 </g>
 <g partID="854765412">
  <g transform="translate(31.2911,92.0096)">
   <g id="silkscreen">
    <line x2="4.752" y1="7.452" stroke-linecap="round" stroke="black" stroke-width="1.512" x1="4.752" y2="23.652"/>
   </g>
  </g>
 </g>
 <g partID="854752401">
  <g transform="translate(2.084,79.6403)">
   <g transform="matrix(0,-1,1,0,0,0)">
    <g id="silkscreen">
     <line x2="0.566929" y1="0.56693" class="other" stroke-linecap="round" stroke="black" stroke-width="0.864" x1="0.566929" y2="26.0788"/>
     <line x2="34.5827" y1="26.0788" class="other" stroke-linecap="round" stroke="black" stroke-width="0.864" x1="0.566929" y2="26.0788"/>
     <line x2="34.5827" y1="26.0788" class="other" stroke-linecap="round" stroke="black" stroke-width="0.864" x1="34.5827" y2="0.56693"/>
     <line x2="0.566929" y1="0.56693" class="other" stroke-linecap="round" stroke="black" stroke-width="0.864" x1="34.5827" y2="0.56693"/>
    </g>
   </g>
  </g>
 </g>
 <g partID="854731261">
  <g transform="translate(1.27287,120.067)">
   <path id="silkscreen" stroke-miterlimit="10" d="M232.911,0.564L8.973,0.564c-4.678,0,-8.504,3.827,-8.504,8.504l0,141.731c0,4.678,3.826,8.504,8.504,8.504l223.938,0c4.678,0,8.504,-3.826,8.504,-8.504L241.415,9.068C241.415,4.391,237.589,0.564,232.911,0.564zM10.39,153.281c-2.152,0,-3.897,-1.744,-3.897,-3.898c0,-2.152,1.745,-3.896,3.897,-3.896c2.151,0,3.897,1.743,3.897,3.896C14.288,151.536,12.542,153.281,10.39,153.281zM10.39,14.383c-2.152,0,-3.897,-1.745,-3.897,-3.898c0,-2.151,1.745,-3.896,3.897,-3.896c2.151,0,3.897,1.745,3.897,3.896C14.288,12.638,12.542,14.383,10.39,14.383zM174.802,153.281c-2.151,0,-3.897,-1.744,-3.897,-3.898c0,-2.152,1.746,-3.896,3.897,-3.896c2.152,0,3.896,1.743,3.896,3.896C178.698,151.536,176.954,153.281,174.802,153.281zM174.802,14.383c-2.151,0,-3.897,-1.745,-3.897,-3.898c0,-2.151,1.746,-3.896,3.897,-3.896c2.152,0,3.896,1.745,3.896,3.896C178.698,12.638,176.954,14.383,174.802,14.383z" stroke="black" stroke-width="0.75" fill="none"/>
  </g>
 </g>
 <g partID="57712">
  <g id="silkscreen">
   <rect x="0.288" width="186.511" stroke="black" stroke-width="0.576" y="0.288" fill="none" height="141.858"/>
  </g>
 </g>
 <g partID="854755901">
  <g transform="translate(104.947,113.862)">
   <g transform="matrix(0,-1,1,0,0,0)">
    <g id="silkscreen">
     <line x2="10.584" y1="3.096" stroke="black" stroke-width="0.72" x1="5.4" y2="3.096"/>
     <line x2="28.8" y1="3.096" stroke="black" stroke-width="0.72" x1="24.984" y2="3.096"/>
     <line x2="24.984" y1="0.72" stroke="black" stroke-width="0.72" x1="10.584" y2="0.72"/>
     <line x2="24.984" y1="0.72" stroke="black" stroke-width="0.72" x1="24.984" y2="5.472"/>
     <line x2="10.584" y1="5.472" stroke="black" stroke-width="0.72" x1="24.984" y2="5.472"/>
     <line x2="10.584" y1="5.472" stroke="black" stroke-width="0.72" x1="10.584" y2="0.72"/>
    </g>
   </g>
  </g>
 </g>
 <g id="partLabel" partID="854731260">
  <g transform="translate(243.09,114.467)">
   <g id="silkscreenLabel" font-size="5" font-family="'OCRA'" fill-opacity="1" stroke="none" font-style="normal" font-weight="normal" fill="#000000">
    <text x="0" y="3.75">Raspberry Pi 1</text>
   </g>
  </g>
 </g>
 <g id="partLabel" partID="854765410">
  <g transform="translate(40.9194,94.5136)">
   <g id="silkscreenLabel" font-size="5" font-family="'OCRA'" fill-opacity="1" stroke="none" font-style="normal" font-weight="normal" fill="#000000">
    <text x="0" y="3.75">Jumper1</text>
   </g>
  </g>
 </g>
 <g id="partLabel" partID="854755900">
  <g transform="translate(89.134,94.012)">
   <g id="silkscreenLabel" font-size="5" font-family="'OCRA'" fill-opacity="1" stroke="none" font-style="normal" font-weight="normal" fill="#000000">
    <text x="0" y="3.75">Term</text>
   </g>
  </g>
 </g>
 <g id="partLabel" partID="854752400">
  <g transform="translate(5.91087,66.0378)">
   <g transform="matrix(0,-1,1,0,0,0)">
    <g id="silkscreenLabel" font-size="5" font-family="'OCRA'" fill-opacity="1" stroke="none" font-style="normal" font-weight="normal" fill="#000000">
     <text x="0" y="3.75">X1</text>
    </g>
   </g>
  </g>
 </g>
 <g partID="854773262">
  <g transform="translate(31.7193,5.35904)">
   <g id="copper1" flipped="1">
    <g transform="matrix(-1, 0, 0, 1, 136.783, 0)">
     <g>
      <g>
       <g gorn="0.5.0">
        <circle gorn="0.5.0.0" cy="4.76725" r="2.088" stroke="white" stroke-width="2.16" fill="white" cx="4.76892"/>
        <rect id="rect82" x="115.244" width="5.45532" gorn="0.5.0.1" stroke="white" stroke-width="2.60114" y="52.8447" fill="white" height="5.45532"/>
        <rect id="connector1pin" x="2.04126" width="5.45532" gorn="0.5.0.2" stroke="white" stroke-width="2.60114" y="52.8447" fill="white" height="5.45532"/>
        <circle id="circle863" gorn="0.5.0.3" cy="55.5723" r="2.088" stroke="white" stroke-width="2.16" fill="white" cx="4.76892"/>
        <rect id="connector3pin" x="115.244" width="5.45532" gorn="0.5.0.4" stroke="white" stroke-width="2.60114" y="52.8447" fill="white" height="5.45532"/>
        <rect id="connector0pin" x="2.04126" width="5.45532" gorn="0.5.0.5" stroke="white" stroke-width="2.60114" y="2.03959" fill="white" height="5.45532"/>
        <circle id="circle869" gorn="0.5.0.6" cy="55.5723" r="2.088" stroke="white" stroke-width="2.16" fill="white" cx="117.971"/>
        <rect id="connector2pin" x="115.331" width="5.45532" gorn="0.5.0.7" stroke="white" stroke-width="2.60114" y="2.27491" fill="white" height="5.45532"/>
        <circle id="circle873" gorn="0.5.0.8" cy="5.00257" r="2.088" stroke="white" stroke-width="2.16" fill="white" cx="118.059"/>
       </g>
       <g gorn="0.5">
        <g id="copper0" gorn="0.5.0">
         <circle gorn="0.5.0.0" cy="4.76725" r="2.088" stroke="white" stroke-width="2.16" fill="white" cx="4.76892"/>
         <rect id="rect82" x="115.244" width="5.45532" gorn="0.5.0.1" stroke="white" stroke-width="2.60114" y="52.8447" fill="white" height="5.45532"/>
         <rect id="connector1pin" x="2.04126" width="5.45532" gorn="0.5.0.2" stroke="white" stroke-width="2.60114" y="52.8447" fill="white" height="5.45532"/>
         <circle id="circle863" gorn="0.5.0.3" cy="55.5723" r="2.088" stroke="white" stroke-width="2.16" fill="white" cx="4.76892"/>
         <rect id="connector3pin" x="115.244" width="5.45532" gorn="0.5.0.4" stroke="white" stroke-width="2.60114" y="52.8447" fill="white" height="5.45532"/>
         <rect id="connector0pin" x="2.04126" width="5.45532" gorn="0.5.0.5" stroke="white" stroke-width="2.60114" y="2.03959" fill="white" height="5.45532"/>
         <circle id="circle869" gorn="0.5.0.6" cy="55.5723" r="2.088" stroke="white" stroke-width="2.16" fill="white" cx="117.971"/>
         <rect id="connector2pin" x="115.331" width="5.45532" gorn="0.5.0.7" stroke="white" stroke-width="2.60114" y="2.27491" fill="white" height="5.45532"/>
         <circle id="circle873" gorn="0.5.0.8" cy="5.00257" r="2.088" stroke="white" stroke-width="2.16" fill="white" cx="118.059"/>
        </g>
       </g>
      </g>
     </g>
    </g>
   </g>
  </g>
 </g>
 <g partID="854765413">
  <g transform="translate(31.2911,92.0096)">
   <g id="copper1">
    <circle id="connector0pad" cy="4.752" r="1.98" stroke="white" stroke-width="2.16" fill="white" cx="4.752"/>
    <circle id="connector1pad" cy="26.352" r="1.98" stroke="white" stroke-width="2.16" fill="white" cx="4.752"/>
   </g>
  </g>
 </g>
 <g partID="854752400">
  <g transform="translate(2.084,79.6403)">
   <g transform="matrix(0,-1,1,0,0,0)">
    <g id="copper1">
     <rect id="connector0pad" x="7.65354" width="2.83465" stroke-linecap="round" stroke="white" stroke-width="0.72" connectorname="1" y="13.0394" fill="white" height="13.0394"/>
     <rect id="connector3pad" x="13.3228" width="2.83465" stroke-linecap="round" stroke="white" stroke-width="0.72" connectorname="2" y="13.0394" fill="white" height="13.0394"/>
     <rect id="connector4pad" x="18.9921" width="2.83465" stroke-linecap="round" stroke="white" stroke-width="0.72" connectorname="3" y="13.0394" fill="white" height="13.0394"/>
     <rect id="connector5pad" x="24.6614" width="2.83465" stroke-linecap="round" stroke="white" stroke-width="0.72" connectorname="4" y="13.0394" fill="white" height="13.0394"/>
     <rect id="connector1pad" x="0" width="4.53543" stroke-linecap="round" stroke="white" stroke-width="0.72" connectorname="P$1" y="-2.51767e-15" fill="white" height="9.6378"/>
     <rect id="connector2pad" x="30.6142" width="4.53543" stroke-linecap="round" stroke="white" stroke-width="0.72" connectorname="P$2" y="-2.51767e-15" fill="white" height="9.6378"/>
     <g id="copper0"/>
    </g>
   </g>
  </g>
 </g>
 <g partID="854731262">
  <g transform="translate(1.27287,120.067)">
   <g id="copper1">
    <circle id="connector0pin" cy="12.919" r="2.088" stroke="white" stroke-width="1.97" fill="white" cx="24.185"/>
    <circle id="connector1pin" cy="12.919" r="2.088" stroke="white" stroke-width="1.97" fill="white" cx="31.384"/>
    <circle id="connector2pin" cy="12.919" r="2.088" stroke="white" stroke-width="1.97" fill="white" cx="38.585"/>
    <circle id="connector3pin" cy="12.919" r="2.088" stroke="white" stroke-width="1.97" fill="white" cx="45.784"/>
    <circle id="connector4pin" cy="12.919" r="2.088" stroke="white" stroke-width="1.97" fill="white" cx="52.985"/>
    <circle id="connector5pin" cy="12.919" r="2.088" stroke="white" stroke-width="1.97" fill="white" cx="60.185"/>
    <circle id="connector6pin" cy="12.919" r="2.088" stroke="white" stroke-width="1.97" fill="white" cx="67.384"/>
    <circle id="connector7pin" cy="12.919" r="2.088" stroke="white" stroke-width="1.97" fill="white" cx="74.585"/>
    <circle id="connector8pin" cy="12.919" r="2.088" stroke="white" stroke-width="1.97" fill="white" cx="81.784"/>
    <circle id="connector9pin" cy="12.919" r="2.088" stroke="white" stroke-width="1.97" fill="white" cx="88.985"/>
    <circle id="connector10pin" cy="12.919" r="2.088" stroke="white" stroke-width="1.97" fill="white" cx="96.185"/>
    <circle id="connector11pin" cy="12.919" r="2.088" stroke="white" stroke-width="1.97" fill="white" cx="103.385"/>
    <circle id="connector12pin" cy="12.919" r="2.088" stroke="white" stroke-width="1.97" fill="white" cx="110.585"/>
    <circle id="connector13pin" cy="12.919" r="2.088" stroke="white" stroke-width="1.97" fill="white" cx="117.784"/>
    <circle id="connector14pin" cy="12.919" r="2.088" stroke="white" stroke-width="1.97" fill="white" cx="124.986"/>
    <circle id="connector15pin" cy="12.919" r="2.088" stroke="white" stroke-width="1.97" fill="white" cx="132.185"/>
    <circle id="connector16pin" cy="12.919" r="2.088" stroke="white" stroke-width="1.97" fill="white" cx="139.385"/>
    <circle id="connector17pin" cy="12.919" r="2.088" stroke="white" stroke-width="1.97" fill="white" cx="146.585"/>
    <circle id="connector18pin" cy="12.919" r="2.088" stroke="white" stroke-width="1.97" fill="white" cx="153.784"/>
    <circle id="connector19pin" cy="12.919" r="2.088" stroke="white" stroke-width="1.97" fill="white" cx="160.986"/>
    <circle id="connector20pin" cy="5.72" r="2.088" stroke="white" stroke-width="1.97" fill="white" cx="160.986"/>
    <circle id="connector21pin" cy="5.72" r="2.088" stroke="white" stroke-width="1.97" fill="white" cx="153.784"/>
    <circle id="connector22pin" cy="5.72" r="2.088" stroke="white" stroke-width="1.97" fill="white" cx="146.585"/>
    <circle id="connector23pin" cy="5.72" r="2.088" stroke="white" stroke-width="1.97" fill="white" cx="139.385"/>
    <circle id="connector24pin" cy="5.72" r="2.088" stroke="white" stroke-width="1.97" fill="white" cx="132.185"/>
    <circle id="connector25pin" cy="5.72" r="2.088" stroke="white" stroke-width="1.97" fill="white" cx="124.986"/>
    <circle id="connector26pin" cy="5.72" r="2.088" stroke="white" stroke-width="1.97" fill="white" cx="117.784"/>
    <circle id="connector27pin" cy="5.72" r="2.088" stroke="white" stroke-width="1.97" fill="white" cx="110.585"/>
    <circle id="connector28pin" cy="5.72" r="2.088" stroke="white" stroke-width="1.97" fill="white" cx="103.385"/>
    <circle id="connector29pin" cy="5.72" r="2.088" stroke="white" stroke-width="1.97" fill="white" cx="96.185"/>
    <circle id="connector30pin" cy="5.72" r="2.088" stroke="white" stroke-width="1.97" fill="white" cx="88.985"/>
    <circle id="connector31pin" cy="5.72" r="2.088" stroke="white" stroke-width="1.97" fill="white" cx="81.784"/>
    <circle id="connector32pin" cy="5.72" r="2.088" stroke="white" stroke-width="1.97" fill="white" cx="74.585"/>
    <circle id="connector33pin" cy="5.72" r="2.088" stroke="white" stroke-width="1.97" fill="white" cx="67.384"/>
    <circle id="connector34pin" cy="5.72" r="2.088" stroke="white" stroke-width="1.97" fill="white" cx="60.185"/>
    <circle id="connector35pin" cy="5.72" r="2.088" stroke="white" stroke-width="1.97" fill="white" cx="52.985"/>
    <circle id="connector36pin" cy="5.72" r="2.088" stroke="white" stroke-width="1.97" fill="white" cx="45.784"/>
    <circle id="connector37pin" cy="5.72" r="2.088" stroke="white" stroke-width="1.97" fill="white" cx="38.585"/>
    <circle id="connector38pin" cy="5.72" r="2.088" stroke="white" stroke-width="1.97" fill="white" cx="31.384"/>
    <circle id="connector39pin" cy="5.72" r="2.088" stroke="white" stroke-width="1.97" fill="white" cx="24.185"/>
   </g>
  </g>
 </g>
 <g partID="854755902">
  <g transform="translate(104.947,113.862)">
   <g transform="matrix(0,-1,1,0,0,0)">
    <g id="copper1">
     <!-- <rect width="55" x="10" y="15.5" fill="none" height="55" stroke="rgb(255, 191, 0)" stroke-width="20" />  -->
     <circle id="connector0pin" cy="3.096" r="1.98" stroke="white" stroke-width="2.16" fill="white" cx="2.7"/>
     <circle id="connector1pin" cy="3.096" r="1.98" stroke="white" stroke-width="2.16" fill="white" cx="31.5"/>
    </g>
   </g>
  </g>
 </g>
 <g partID="854772632">
  <g transform="translate(189.619,113.186)">
   <g transform="matrix(-1,0,0,-1,0,0)">
    <g id="copper1" flipped="1">
     <g transform="matrix(-1, 0, 0, 1, 34.56, 0)">
      <g>
       <g>
        <g>
         <rect id="square" x="12.1209" width="4.55811" stroke="white" stroke-width="2.16" y="6.72095" fill="white" height="4.55811"/>
         <circle id="connector0pin" cy="9" r="2.27905" stroke="white" stroke-width="2.16" fill="white" cx="14.4"/>
         <circle id="connector1pin" cy="23.4" r="2.27905" stroke="white" stroke-width="2.16" fill="white" cx="14.4"/>
        </g>
        <g>
         <g id="copper0">
          <rect id="square" x="12.1209" width="4.55811" stroke="white" stroke-width="2.16" y="6.72095" fill="white" height="4.55811"/>
          <circle id="connector0pin" cy="9" r="2.27905" stroke="white" stroke-width="2.16" fill="white" cx="14.4"/>
          <circle id="connector1pin" cy="23.4" r="2.27905" stroke="white" stroke-width="2.16" fill="white" cx="14.4"/>
         </g>
        </g>
       </g>
      </g>
     </g>
    </g>
   </g>
  </g>
 </g>
 <g partID="854748261">
  <g transform="translate(169.85,124.139)">
   <g id="copper1">
    <circle id="nonconn0" cy="6.13543" r="4.53543" stroke-width="0.72" stroke="white" fill="white" cx="6.13543"/>
   </g>
  </g>
 </g>
 <g partID="854760161">
  <g transform="translate(58.0731,52.3447)">
   <g id="copper1">
    <circle id="nonconn0" cy="6.13543" r="4.53543" stroke-width="0.72" stroke="white" fill="white" cx="6.13543"/>
   </g>
  </g>
 </g>
 <g partID="854759561">
  <g transform="translate(144.06,6.1348)">
   <g id="copper1">
    <circle id="nonconn0" cy="6.13543" r="4.53543" stroke-width="0.72" stroke="white" fill="white" cx="6.13543"/>
   </g>
  </g>
 </g>
 <g partID="854748291">
  <g transform="translate(5.4831,124.757)">
   <g id="copper1">
    <circle id="nonconn0" cy="6.13543" r="4.53543" stroke-width="0.72" stroke="white" fill="white" cx="6.13543"/>
   </g>
  </g>
 </g>
 <g partID="854748612">
  <g transform="translate(-5.71693,1.3616)">
   <g id="copper1" flipped="1">
    <g transform="matrix(-1, 0, 0, 1, 34.56, 0)">
     <g>
      <g>
       <g>
        <rect id="square" x="12.24" width="4.32" stroke="white" stroke-width="2.16" y="6.84" fill="white" height="4.32"/>
        <circle id="connector0pin" cy="9" r="2.16" stroke="white" stroke-width="2.16" fill="white" cx="14.4"/>
        <circle id="connector1pin" cy="23.4" r="2.16" stroke="white" stroke-width="2.16" fill="white" cx="14.4"/>
       </g>
       <g>
        <g id="copper0">
         <rect id="square" x="12.24" width="4.32" stroke="white" stroke-width="2.16" y="6.84" fill="white" height="4.32"/>
         <circle id="connector0pin" cy="9" r="2.16" stroke="white" stroke-width="2.16" fill="white" cx="14.4"/>
         <circle id="connector1pin" cy="23.4" r="2.16" stroke="white" stroke-width="2.16" fill="white" cx="14.4"/>
        </g>
       </g>
      </g>
     </g>
    </g>
   </g>
  </g>
 </g>
 <g partID="854773832">
  <g transform="translate(148.115,119.419)">
   <g transform="matrix(-1,0,0,-1,0,0)">
    <g id="copper1" flipped="1">
     <g transform="matrix(-1, 0, 0, 1, 135.667, 0)">
      <g>
       <g transform="matrix(1, 0, 0, 1, -0.0199473, -0.0221374)">
        <g>
         <g>
          <g gorn="0.4.0.0.0">
           <circle id="DI" gorn="0.4.0.0.0.0" cy="29.8792" r="1.7008" stroke-width="1.85384" stroke="white" fill="white" cx="12.8147"/>
           <circle id="DE" gorn="0.4.0.0.0.1" cy="22.6793" r="1.7008" stroke-width="1.85384" stroke="white" fill="white" cx="12.8147"/>
           <circle id="RE" gorn="0.4.0.0.0.2" cy="15.4793" r="1.7008" stroke-width="1.85384" stroke="white" fill="white" cx="12.8147"/>
           <circle id="RO" gorn="0.4.0.0.0.3" cy="8.27925" r="1.7008" stroke-width="1.85384" stroke="white" fill="white" cx="12.8147"/>
           <g transform="matrix(1, 0, 0, 1, -1.88103, 0.556773)">
            <g>
             <g>
              <g id="ground" gorn="0.4.0.0.0.4.0.0">
               <rect id="rect7131" x="128.978" width="3.4016" gorn="0.4.0.0.0.4.0.0.0" stroke-width="1.85384" stroke="white" y="28.1785" fill="white" height="3.4016"/>
               <circle id="circle7133" gorn="0.4.0.0.0.4.0.0.1" cy="29.8792" r="1.7008" stroke-width="1.85384" stroke="white" fill="white" cx="130.679"/>
              </g>
             </g>
            </g>
           </g>
           <circle id="A" gorn="0.4.0.0.0.5" cy="23.236" r="1.7008" stroke-width="1.85384" stroke="white" fill="white" cx="128.798"/>
           <circle id="B" gorn="0.4.0.0.0.6" cy="16.036" r="1.7008" stroke-width="1.85384" stroke="white" fill="white" cx="128.798"/>
           <circle id="VCC" gorn="0.4.0.0.0.7" cy="8.83602" r="1.7008" stroke-width="1.85384" stroke="white" fill="white" cx="128.798"/>
          </g>
          <g gorn="0.4.0.0">
           <g id="copper0" gorn="0.4.0.0.0">
            <circle id="DI" gorn="0.4.0.0.0.0" cy="29.8792" r="1.7008" stroke-width="1.85384" stroke="white" fill="white" cx="12.8147"/>
            <circle id="DE" gorn="0.4.0.0.0.1" cy="22.6793" r="1.7008" stroke-width="1.85384" stroke="white" fill="white" cx="12.8147"/>
            <circle id="RE" gorn="0.4.0.0.0.2" cy="15.4793" r="1.7008" stroke-width="1.85384" stroke="white" fill="white" cx="12.8147"/>
            <circle id="RO" gorn="0.4.0.0.0.3" cy="8.27925" r="1.7008" stroke-width="1.85384" stroke="white" fill="white" cx="12.8147"/>
            <g transform="matrix(1, 0, 0, 1, -1.88103, 0.556773)">
             <g>
              <g>
               <g id="ground" gorn="0.4.0.0.0.4.0.0">
                <rect id="rect7131" x="128.978" width="3.4016" gorn="0.4.0.0.0.4.0.0.0" stroke-width="1.85384" stroke="white" y="28.1785" fill="white" height="3.4016"/>
                <circle id="circle7133" gorn="0.4.0.0.0.4.0.0.1" cy="29.8792" r="1.7008" stroke-width="1.85384" stroke="white" fill="white" cx="130.679"/>
               </g>
              </g>
             </g>
            </g>
            <circle id="A" gorn="0.4.0.0.0.5" cy="23.236" r="1.7008" stroke-width="1.85384" stroke="white" fill="white" cx="128.798"/>
            <circle id="B" gorn="0.4.0.0.0.6" cy="16.036" r="1.7008" stroke-width="1.85384" stroke="white" fill="white" cx="128.798"/>
            <circle id="VCC" gorn="0.4.0.0.0.7" cy="8.83602" r="1.7008" stroke-width="1.85384" stroke="white" fill="white" cx="128.798"/>
           </g>
           <circle id="connector3pad" gorn="0.4.0.0.1" cy="29.8792" r="1.7008" stroke-width="1.85384" stroke="white" fill="white" cx="12.8147"/>
           <circle id="connector2pad" gorn="0.4.0.0.2" cy="22.6792" r="1.7008" stroke-width="1.85384" stroke="white" fill="white" cx="12.8147"/>
           <circle id="connector1pad" gorn="0.4.0.0.3" cy="15.4792" r="1.7008" stroke-width="1.85384" stroke="white" fill="white" cx="12.8147"/>
           <circle id="connector0pad" gorn="0.4.0.0.4" cy="8.27925" r="1.7008" stroke-width="1.85384" stroke="white" fill="white" cx="12.8147"/>
           <g transform="matrix(1, 0, 0, 1, -1.88103, 0.556773)">
            <g>
             <g>
              <g id="g25" gorn="0.4.0.0.5.0.0">
               <rect id="rect6907" x="128.978" width="3.4016" gorn="0.4.0.0.5.0.0.0" stroke-width="1.85384" stroke="white" y="28.1785" fill="white" height="3.4016"/>
               <circle id="connector4pad" gorn="0.4.0.0.5.0.0.1" cy="29.8792" r="1.7008" stroke-width="1.85384" stroke="white" fill="white" cx="130.679"/>
              </g>
             </g>
            </g>
           </g>
           <circle id="connector5pad" gorn="0.4.0.0.6" cy="23.236" r="1.7008" stroke-width="1.85384" stroke="white" fill="white" cx="128.798"/>
           <circle id="connector6pad" gorn="0.4.0.0.7" cy="16.036" r="1.7008" stroke-width="1.85384" stroke="white" fill="white" cx="128.798"/>
           <circle id="connector7pad" gorn="0.4.0.0.8" cy="8.83602" r="1.7008" stroke-width="1.85384" stroke="white" fill="white" cx="128.798"/>
          </g>
         </g>
        </g>
       </g>
      </g>
     </g>
    </g>
   </g>
  </g>
 </g>
</svg>
