<?xml version="1.0" encoding="UTF-8" standalone="no"?>
<svg
   xmlns:dc="http://purl.org/dc/elements/1.1/"
   xmlns:cc="http://creativecommons.org/ns#"
   xmlns:rdf="http://www.w3.org/1999/02/22-rdf-syntax-ns#"
   xmlns:svg="http://www.w3.org/2000/svg"
   xmlns="http://www.w3.org/2000/svg"
   xmlns:sodipodi="http://sodipodi.sourceforge.net/DTD/sodipodi-0.dtd"
   xmlns:inkscape="http://www.inkscape.org/namespaces/inkscape"
   inkscape:version="1.0 (4035a4fb49, 2020-05-01)"
   sodipodi:docname="flatcam_path_export.svg"
   id="svg70"
   width="57.39595mm"
   viewBox="0.7906 -62.3474 57.395953 62.628601"
   version="1.1"
   height="62.628605mm">
  <metadata
     id="metadata76">
    <rdf:RDF>
      <cc:Work
         rdf:about="">
        <dc:format>image/svg+xml</dc:format>
        <dc:type
           rdf:resource="http://purl.org/dc/dcmitype/StillImage" />
        <dc:title></dc:title>
      </cc:Work>
    </rdf:RDF>
  </metadata>
  <defs
     id="defs74" />
  <sodipodi:namedview
     fit-margin-bottom="0"
     fit-margin-right="0"
     fit-margin-left="0"
     fit-margin-top="0"
     inkscape:current-layer="g66"
     inkscape:window-maximized="1"
     inkscape:window-y="0"
     inkscape:window-x="0"
     showgrid="false"
     id="namedview72"
     inkscape:window-height="1374"
     inkscape:window-width="2560"
     inkscape:pageshadow="2"
     inkscape:pageopacity="0"
     guidetolerance="10"
     gridtolerance="10"
     objecttolerance="10"
     borderopacity="1"
     bordercolor="#666666"
     pagecolor="#ffffff" />
  <g
     transform="matrix(1,0,0,-1,-9.6274,4.425388)"
     id="g66">
    <path
       id="path1224"
       transform="matrix(0.26458333,0,0,-0.26458333,10.418,66.772788)"
       d="m 51.212891,65.085938 -0.34961,0.01758 -0.03711,0.002 -0.03516,0.0059 -0.345704,0.05078 -0.03711,0.0059 -0.03516,0.0078 -0.337891,0.08594 -0.03711,0.0098 -0.03516,0.01172 -0.328125,0.117188 -0.03516,0.01367 -0.0332,0.01367 -0.314453,0.150391 -0.0332,0.01563 -0.0332,0.01953 -0.298828,0.177735 -0.03125,0.02148 -0.03125,0.02148 -0.279297,0.207032 -0.0293,0.02344 -0.02734,0.02344 -0.257812,0.234375 -0.02734,0.02539 -0.02539,0.02734 -0.234375,0.257812 -0.02539,0.02734 -0.02148,0.0293 -0.207031,0.279297 -0.02148,0.03125 -0.02148,0.03125 -0.177734,0.298828 -0.01953,0.0332 -0.01563,0.0332 -0.150391,0.314454 -0.01367,0.0332 -0.01367,0.03516 -0.117187,0.328125 -0.01172,0.03516 -0.0098,0.03711 -0.08594,0.33789 -0.0078,0.03516 -0.0059,0.03711 -0.05078,0.345703 -0.0059,0.03516 -0.002,0.03711 -0.01758,0.34961 v 0.03711 0.03711 l 0.01758,0.347656 0.002,0.03711 0.0059,0.03711 0.05078,0.345703 0.0059,0.03516 0.0078,0.03711 0.08594,0.337891 0.0098,0.03516 0.01172,0.03516 0.117187,0.328124 0.01367,0.03516 0.01367,0.03516 0.150391,0.314453 0.01563,0.0332 0.01758,0.03125 0.179687,0.300781 0.01953,0.03125 0.02148,0.0293 0.208984,0.279297 0.02148,0.0293 0.02539,0.0293 0.234375,0.257812 0.02539,0.02734 0.02734,0.02539 0.257812,0.234375 0.02734,0.02344 0.0293,0.02344 0.279297,0.207031 0.03125,0.02148 0.03125,0.01953 0.298828,0.179687 0.03125,0.01758 0.0332,0.01758 0.316406,0.148437 0.0332,0.01563 0.03516,0.01367 0.328125,0.117187 0.03516,0.01172 0.03516,0.0098 0.339844,0.08398 0.03516,0.0078 0.03711,0.0078 0.34375,0.05078 0.03711,0.0039 0.03711,0.0039 0.271485,0.01172 1.564453,3.451172 V 65.341797 l -0.164063,-0.05859 -0.03516,-0.01172 -0.03711,-0.0098 -0.337891,-0.08594 -0.03516,-0.0078 -0.03711,-0.0059 -0.345703,-0.05078 -0.03516,-0.0059 -0.03711,-0.002 -0.34961,-0.01758 H 51.25 Z"
       style="stroke-width:3.77953" />
    <path
       id="path1222"
       transform="matrix(0.26458333,0,0,-0.26458333,10.418,66.772788)"
       d="m 41.611328,65.085938 -0.347656,0.01758 -0.03711,0.002 -0.03711,0.0059 -0.34375,0.05078 -0.03711,0.0059 -0.03711,0.0078 -0.33789,0.08594 -0.03516,0.0098 -0.03516,0.01172 -0.328125,0.117188 -0.03516,0.01367 -0.0332,0.01367 -0.316406,0.150391 -0.0332,0.01563 -0.03125,0.01953 -0.298829,0.177735 -0.03125,0.02148 -0.03125,0.02148 -0.279297,0.207032 -0.0293,0.02344 -0.02734,0.02344 -0.259766,0.234375 -0.02539,0.02539 -0.02539,0.02734 -0.234375,0.257812 -0.02539,0.02734 -0.02148,0.0293 -0.208984,0.279297 -0.02148,0.03125 -0.01953,0.03125 -0.179687,0.298828 -0.01758,0.0332 -0.01563,0.0332 -0.15039,0.314454 -0.01563,0.0332 -0.01172,0.03516 -0.117188,0.328125 -0.01172,0.03516 -0.0098,0.03711 -0.08594,0.33789 -0.0078,0.03516 -0.0059,0.03711 -0.05273,0.345703 -0.0039,0.03516 -0.002,0.03711 -0.01758,0.34961 v 0.03711 0.03711 l 0.01758,0.347656 0.0039,0.03711 0.0039,0.03516 0.05078,0.345704 0.0059,0.03711 0.0098,0.03516 0.08398,0.337891 0.0098,0.03711 0.01172,0.03516 0.117188,0.328124 0.01367,0.03516 0.01563,0.0332 0.148437,0.314453 0.01563,0.0332 0.01953,0.0332 0.179687,0.298828 0.01953,0.03125 0.02148,0.0293 0.207031,0.28125 0.02344,0.0293 0.02344,0.02734 0.234375,0.257812 0.02539,0.02734 0.02734,0.02539 0.257813,0.234375 0.02734,0.02344 0.0293,0.02344 0.28125,0.207031 0.0293,0.02148 0.03125,0.02148 0.298829,0.177734 0.0332,0.01953 0.0332,0.01563 0.314453,0.148438 0.03516,0.01563 0.0332,0.01367 0.328125,0.117187 0.03516,0.01172 0.03711,0.0098 0.337891,0.08594 0.03516,0.0078 0.03711,0.0059 0.345703,0.05078 0.03711,0.0059 0.03711,0.002 0.08594,0.0039 11.347657,28.34961 V 91.769531 l -7.81836,-19.533203 0.07422,-0.08203 0.02344,-0.02734 0.02344,-0.0293 0.207031,-0.279297 0.02148,-0.03125 0.02148,-0.03125 0.177735,-0.298828 0.01953,-0.03125 0.01563,-0.03516 0.148437,-0.314453 0.01563,-0.0332 0.01367,-0.03516 0.117188,-0.328124 0.01172,-0.03516 0.0098,-0.03516 0.08398,-0.339844 0.0098,-0.03516 0.0059,-0.03711 0.05078,-0.34375 0.0039,-0.03711 0.0039,-0.03711 0.01758,-0.347656 v -0.01953 -0.03711 -0.01758 l -0.01758,-0.34961 -0.0039,-0.03711 -0.0039,-0.03516 -0.05078,-0.345703 -0.0059,-0.03711 -0.0098,-0.03516 -0.08398,-0.33789 -0.0098,-0.03711 -0.01172,-0.03516 -0.117188,-0.328125 -0.01367,-0.03516 -0.01563,-0.0332 -0.148437,-0.314454 -0.01563,-0.0332 -0.01953,-0.0332 L 45.251953,67.03125 45.230469,67 l -0.02148,-0.03125 -0.207031,-0.279297 -0.02344,-0.0293 -0.02344,-0.02734 -0.234375,-0.257812 -0.02539,-0.02734 -0.02734,-0.02539 -0.257813,-0.234375 -0.02734,-0.02344 -0.0293,-0.02344 -0.28125,-0.207032 -0.0293,-0.02148 -0.03125,-0.02148 -0.298828,-0.177735 -0.0332,-0.01953 -0.0332,-0.01563 -0.314453,-0.150391 -0.0332,-0.01367 -0.03516,-0.01367 -0.328125,-0.117188 -0.03516,-0.01172 -0.03711,-0.0098 -0.33789,-0.08594 -0.03516,-0.0078 -0.03711,-0.0059 -0.345703,-0.05078 -0.03516,-0.0059 -0.03711,-0.002 -0.349609,-0.01758 h -0.03711 z"
       style="stroke-width:3.77953" />
    <path
       id="path1220"
       transform="matrix(0.26458333,0,0,-0.26458333,10.418,66.772788)"
       d="m 32.013672,65.085938 -0.34961,0.01758 -0.03711,0.002 -0.03516,0.0039 -0.345703,0.05273 -0.03711,0.0059 -0.03516,0.0078 -0.33789,0.08594 -0.03711,0.0098 -0.03516,0.01172 -0.328125,0.117188 -0.03516,0.01367 -0.0332,0.01367 -0.314454,0.150391 -0.0332,0.01563 -0.0332,0.01758 -0.298828,0.179688 -0.03125,0.01953 -0.03125,0.02148 -0.279297,0.208985 -0.0293,0.02148 -0.02734,0.02539 -0.257812,0.234375 -0.02734,0.02539 -0.02539,0.02539 -0.234375,0.259765 -0.02344,0.02734 -0.02344,0.0293 L 28.490234,66.96875 28.46875,67 l -0.02148,0.03125 -0.177735,0.298828 -0.01953,0.03125 -0.01563,0.0332 -0.150391,0.316407 -0.01367,0.0332 -0.01367,0.03516 -0.117188,0.328125 -0.01172,0.03516 -0.0098,0.03516 -0.08594,0.337891 -0.0078,0.03711 -0.0059,0.03711 -0.05078,0.34375 -0.0059,0.03711 -0.002,0.03711 -0.01758,0.347657 v 0.03711 0.03711 l 0.01758,0.349609 0.002,0.03711 0.0059,0.03516 0.05078,0.345704 0.0059,0.03711 0.0078,0.03516 0.08594,0.337891 0.0098,0.03711 0.01172,0.03516 0.117188,0.328124 0.01367,0.03516 0.01367,0.0332 0.150391,0.314453 0.01563,0.0332 0.01953,0.0332 0.177735,0.298828 0.02148,0.03125 0.02148,0.0293 0.207032,0.28125 0.02344,0.0293 0.02344,0.02734 0.234375,0.257812 0.02539,0.02734 0.02734,0.02539 0.257812,0.234375 0.02734,0.02344 0.0293,0.02344 0.279297,0.207031 0.03125,0.02148 0.03125,0.02148 0.298828,0.177734 0.0332,0.01953 0.0332,0.01563 0.203125,0.0957 0.539063,28.679692 -10.945313,7.29687 -0.144531,-0.0684 -0.0332,-0.0156 -0.03516,-0.0137 -0.279297,-0.0996 -0.03516,-0.0117 -0.03516,-0.01 -0.289062,-0.0723 -0.03516,-0.008 -0.03711,-0.006 -0.292969,-0.0449 -0.03711,-0.004 -0.03711,-0.002 -0.296875,-0.0156 h -0.03711 -0.03711 l -0.294922,0.0156 -0.03711,0.002 -0.03711,0.004 -0.292968,0.0449 -0.03711,0.006 -0.03711,0.008 -0.28711,0.0723 -0.03516,0.01 -0.03516,0.0117 -0.28125,0.0996 -0.0332,0.0137 -0.03516,0.0156 -0.267579,0.12695 -0.0332,0.0156 -0.0332,0.0195 -0.253906,0.15234 -0.03125,0.0195 -0.0293,0.0215 -0.238281,0.17578 -0.0293,0.0234 -0.0293,0.0234 -0.21875,0.19921 -0.02734,0.0273 -0.02539,0.0254 -0.199219,0.2207 -0.02539,0.0273 -0.02148,0.0293 -0.177734,0.23828 -0.02149,0.0312 -0.01953,0.0312 -0.152344,0.25391 -0.01758,0.0312 -0.01758,0.0352 -0.126953,0.26757 -0.01563,0.0332 -0.01172,0.0352 -0.101562,0.2793 -0.01172,0.0352 -0.0098,0.0351 -0.07031,0.28907 -0.0098,0.0352 -0.0059,0.0371 -0.04297,0.29297 -0.0059,0.0371 -0.002,0.0371 -0.01563,0.29687 v 0.0371 0.0371 l 0.01563,0.29688 0.002,0.0371 0.0059,0.0351 0.04297,0.29492 0.0059,0.0352 0.0098,0.0371 0.07031,0.28711 0.0098,0.0371 0.01172,0.0352 0.101562,0.27929 0.01172,0.0352 0.01563,0.0332 0.126953,0.26758 0.01758,0.0332 0.01758,0.0332 0.152344,0.2539 0.01953,0.0312 0.02149,0.0312 0.177734,0.23828 0.02148,0.0293 0.02539,0.0273 0.199219,0.21875 0.02539,0.0273 0.02734,0.0254 0.21875,0.19922 0.0293,0.0254 0.0293,0.0215 0.238281,0.17774 0.0293,0.0215 0.03125,0.0195 0.160156,0.0957 -0.0039,3.08593 -0.15625,0.0937 -0.03125,0.0195 -0.0293,0.0215 -0.238281,0.17773 -0.0293,0.0215 -0.0293,0.0254 -0.21875,0.19922 -0.02734,0.0254 -0.02539,0.0273 -0.199219,0.21875 -0.02344,0.0293 -0.02344,0.0293 -0.177734,0.23828 -0.02149,0.0293 -0.01953,0.0312 -0.152344,0.25391 -0.01758,0.0332 -0.01758,0.0332 -0.126953,0.26757 -0.01367,0.0352 -0.01367,0.0332 -0.09961,0.28125 -0.01172,0.0332 -0.0098,0.0371 -0.07226,0.2871 -0.0098,0.0371 -0.0059,0.0371 -0.04297,0.29297 -0.0059,0.0371 -0.002,0.0371 -0.01563,0.29492 v 0.0371 0.0371 l 0.01563,0.29688 0.0039,0.0371 0.0039,0.0371 0.04297,0.29296 0.0078,0.0371 0.0078,0.0352 0.07226,0.28906 0.0098,0.0352 0.01172,0.0352 0.09961,0.27929 0.01367,0.0352 0.01367,0.0332 0.126953,0.26953 0.01758,0.0332 0.01758,0.0312 0.152344,0.25586 0.02148,0.0312 0.02149,0.0293 0.175781,0.23828 0.02344,0.0293 0.02344,0.0273 0.199219,0.22071 0.02539,0.0273 0.02734,0.0254 0.220703,0.19922 0.02734,0.0234 0.0293,0.0234 0.238281,0.17578 0.0293,0.0215 0.03125,0.0215 0.255859,0.15235 0.03125,0.0176 0.0332,0.0176 0.269532,0.125 0.0332,0.0156 0.03516,0.0137 0.279297,0.0996 0.03516,0.0117 0.03516,0.01 0.289063,0.0723 0.03516,0.008 0.03711,0.008 0.292968,0.043 0.03711,0.004 0.03711,0.004 0.296875,0.0137 0.03711,0.002 0.03711,-0.002 0.294922,-0.0137 0.03711,-0.004 0.03711,-0.004 0.292969,-0.043 0.03711,-0.008 0.03711,-0.008 0.287109,-0.0723 0.03516,-0.01 0.03516,-0.0117 0.279297,-0.0996 0.03516,-0.0137 0.03516,-0.0156 0.267578,-0.125 0.0332,-0.0176 0.03125,-0.0176 0.25586,-0.15235 0.03125,-0.0215 0.0293,-0.0215 0.238281,-0.17578 0.0293,-0.0234 0.0293,-0.0234 0.21875,-0.19922 0.02734,-0.0254 0.02539,-0.0273 0.199219,-0.22071 0.02344,-0.0273 0.02344,-0.0293 0.177734,-0.23828 0.02148,-0.0293 0.01953,-0.0312 0.152344,-0.25586 0.01758,-0.0312 0.01758,-0.0332 0.126953,-0.26953 0.01367,-0.0332 0.01367,-0.0352 0.09961,-0.27929 0.01172,-0.0352 0.0098,-0.0352 0.07227,-0.28906 0.0098,-0.0352 0.0059,-0.0371 0.04297,-0.29296 0.0059,-0.0371 0.002,-0.0371 0.01367,-0.29688 0.002,-0.0176 v -0.0371 l -0.002,-0.0195 -0.01367,-0.29492 -0.002,-0.0371 -0.0059,-0.0371 -0.04297,-0.29297 -0.0059,-0.0371 -0.0098,-0.0371 -0.07227,-0.2871 -0.0098,-0.0352 -0.01172,-0.0352 -0.09961,-0.27929 -0.01367,-0.0352 -0.01367,-0.0352 -0.126953,-0.26757 -0.01758,-0.0332 -0.01758,-0.0332 -0.152344,-0.25391 -0.01953,-0.0312 -0.02148,-0.0293 -0.177734,-0.23828 -0.02344,-0.0293 -0.02344,-0.0293 -0.199219,-0.21875 -0.02539,-0.0273 -0.02734,-0.0254 -0.21875,-0.19922 -0.0293,-0.0234 -0.0293,-0.0234 -0.238281,-0.17773 -0.0293,-0.0215 -0.03125,-0.0195 -0.160156,-0.0957 0.0039,-3.08594 0.15625,-0.0937 0.03125,-0.0195 0.0293,-0.0215 0.238281,-0.17774 0.0293,-0.0215 0.0293,-0.0254 0.21875,-0.19922 0.02734,-0.0254 0.02539,-0.0254 0.199219,-0.22071 0.02344,-0.0273 0.02344,-0.0293 0.177734,-0.23828 0.02148,-0.0312 0.01953,-0.0312 0.152344,-0.2539 0.01758,-0.0332 0.01758,-0.0332 0.126953,-0.26758 0.01367,-0.0332 0.01367,-0.0352 0.09961,-0.27929 0.01172,-0.0352 0.0098,-0.0371 0.07227,-0.28711 0.0098,-0.0371 0.0059,-0.0352 0.04297,-0.29492 0.0039,-0.0351 0.0039,-0.0371 0.01367,-0.29688 0.002,-0.0195 v -0.0371 l -0.002,-0.0176 -0.0098,-0.21484 11.787109,-7.85742 0.01367,-0.01 0.0059,-0.004 0.01172,-0.008 0.0293,-0.0215 0.0293,-0.0234 0.03125,-0.0215 0.0293,-0.0234 0.01367,-0.0117 0.01367,-0.0117 0.0293,-0.0254 0.02734,-0.0254 0.02734,-0.0254 0.02734,-0.0254 0.01172,-0.0137 0.01367,-0.0137 0.02539,-0.0273 0.02539,-0.0273 0.02539,-0.0293 0.02344,-0.0273 0.01172,-0.0156 0.01172,-0.0137 0.02344,-0.0293 0.02148,-0.0312 0.02148,-0.0312 0.02148,-0.0293 0.01172,-0.0156 0.0098,-0.0156 0.01953,-0.0332 0.01758,-0.0312 0.01953,-0.0332 0.01953,-0.0312 0.0078,-0.0176 0.0098,-0.0156 0.01563,-0.0352 0.01563,-0.0332 0.01563,-0.0352 0.01563,-0.0332 0.0059,-0.0176 0.0078,-0.0176 0.01367,-0.0351 0.01172,-0.0352 0.01172,-0.0352 0.01172,-0.0352 0.0059,-0.0195 0.0059,-0.0176 0.0078,-0.0352 0.0098,-0.0371 0.0078,-0.0371 0.0098,-0.0352 0.002,-0.0195 0.0039,-0.0176 0.0059,-0.0371 0.0059,-0.0371 0.0059,-0.0371 0.0039,-0.0371 0.002,-0.0176 0.002,-0.0195 0.002,-0.0371 v -0.0371 l 0.002,-0.0371 0.002,-0.0371 -0.002,-0.0137 0.002,-0.006 -0.002,-0.0195 -0.558594,-29.759764 0.0098,-0.0039 0.0332,-0.01953 0.298828,-0.177734 0.03125,-0.02148 0.03125,-0.02148 0.279297,-0.207031 0.0293,-0.02344 0.02734,-0.02344 0.257812,-0.234375 0.02734,-0.02539 0.02539,-0.02734 0.234375,-0.257812 0.02539,-0.02734 0.02148,-0.0293 0.207031,-0.28125 0.02148,-0.0293 0.02148,-0.03125 0.177734,-0.298828 0.01953,-0.0332 0.01563,-0.0332 0.150391,-0.314453 0.01367,-0.0332 0.01367,-0.03516 0.117187,-0.328124 0.01172,-0.03516 0.0098,-0.03711 0.08594,-0.337891 0.0078,-0.03516 0.0059,-0.03711 0.05078,-0.345704 0.0059,-0.03516 0.002,-0.03711 0.01758,-0.349609 v -0.01758 -0.03711 -0.01953 l -0.01758,-0.347657 -0.002,-0.03711 -0.0059,-0.03711 -0.05078,-0.34375 -0.0059,-0.03711 -0.0078,-0.03711 -0.08594,-0.337891 -0.0098,-0.03516 -0.01172,-0.03516 -0.117187,-0.328125 -0.01367,-0.03516 -0.01367,-0.0332 -0.150391,-0.316407 -0.01563,-0.0332 -0.01953,-0.03125 L 35.652344,67.03125 35.630859,67 l -0.02148,-0.03125 -0.207031,-0.279297 -0.02148,-0.0293 -0.02539,-0.02734 -0.234375,-0.259765 -0.02539,-0.02539 -0.02734,-0.02539 -0.257812,-0.234375 -0.02734,-0.02539 -0.0293,-0.02148 -0.279297,-0.208985 -0.03125,-0.02148 -0.03125,-0.01953 -0.298828,-0.179688 -0.0332,-0.01758 -0.0332,-0.01563 -0.314453,-0.150391 -0.0332,-0.01367 -0.03516,-0.01367 -0.328124,-0.117188 -0.03516,-0.01172 -0.03711,-0.0098 -0.337891,-0.08594 -0.03516,-0.0078 -0.03711,-0.0059 -0.345704,-0.05273 -0.03516,-0.0039 -0.03711,-0.002 -0.349609,-0.01758 h -0.03516 z"
       style="stroke-width:3.77953" />
    <path
       id="path1218"
       transform="matrix(0.26458333,0,0,-0.26458333,10.418,66.772788)"
       d="m 27.882812,58.173828 -0.04687,0.002 -0.04492,0.002 -0.03711,0.002 H 27.75 l -0.01367,0.002 h -0.0039 l -0.03711,0.0059 -0.04492,0.0059 -0.04492,0.0059 -0.03711,0.0059 -0.0039,0.002 -0.01367,0.002 h -0.0039 l -0.03516,0.0098 -0.04492,0.0098 -0.04492,0.01172 -0.03516,0.0098 h -0.0039 l -0.01367,0.0039 -0.0039,0.002 -0.03516,0.01172 -0.04297,0.01563 -0.04297,0.01367 -0.03516,0.01367 -0.0039,0.002 -0.01172,0.0039 -0.0039,0.002 -0.0332,0.01563 -0.04297,0.01953 -0.04102,0.01953 -0.0332,0.01563 -0.0039,0.002 -0.01172,0.0059 -0.0039,0.002 -0.03125,0.01758 -0.03906,0.02344 -0.03906,0.02344 -0.0332,0.01953 -0.002,0.0039 -0.01172,0.0059 -0.0039,0.002 -0.0293,0.02148 -0.03711,0.02734 -0.03711,0.02734 -0.0293,0.02344 -0.0039,0.002 -0.0098,0.0078 -0.0039,0.0039 -0.02734,0.02344 -0.03516,0.03125 -0.0332,0.0293 -0.02734,0.02539 -0.0039,0.0039 -0.0078,0.0078 -0.0039,0.0039 -0.02539,0.02734 -0.03125,0.0332 -0.03125,0.0332 -0.02344,0.0293 -0.0039,0.002 -0.0078,0.0098 -0.002,0.0039 -0.02344,0.0293 -0.02734,0.03711 -0.02734,0.03516 -0.0098,0.01563 -0.01172,0.01563 -9.791015,14.302735 -0.01172,0.01563 v 0.002 l -0.0039,0.0078 -0.01953,0.03125 -0.02148,0.03516 -0.02344,0.03711 -0.01758,0.03125 -0.0078,0.01172 -0.0059,0.01367 -0.01758,0.0332 -0.01758,0.03711 -0.01758,0.03906 -0.01563,0.0332 -0.0059,0.01367 -0.0059,0.01172 -0.01367,0.03516 -0.01367,0.04102 -0.01367,0.03906 -0.01172,0.03516 -0.0039,0.01367 -0.0059,0.01367 -0.0098,0.03516 -0.0098,0.04102 -0.0098,0.04102 -0.0098,0.03711 -0.002,0.01367 -0.0039,0.01367 -0.0059,0.03711 -0.0059,0.04102 -0.0059,0.04297 -0.0059,0.03711 -0.002,0.01367 v 0.01367 l -0.0039,0.03711 -0.002,0.04297 -0.002,0.04102 -0.002,0.03711 v 0.0098 0.01953 l 0.08984,25.441406 -0.154297,0.09375 -0.03125,0.01953 -0.0293,0.02148 -0.238281,0.17578 -0.0293,0.0234 -0.0293,0.0234 -0.21875,0.19921 -0.02734,0.0273 -0.02539,0.0254 -0.199219,0.2207 -0.02344,0.0273 -0.02344,0.0293 -0.177734,0.23828 -0.02149,0.0312 -0.01953,0.0312 -0.152344,0.25391 -0.01758,0.0312 -0.01758,0.0352 -0.126953,0.26758 -0.01367,0.0332 -0.01367,0.0352 -0.09961,0.2793 -0.01172,0.0352 -0.0098,0.0352 -0.07226,0.28907 -0.0098,0.0352 -0.0059,0.0371 -0.04297,0.29297 -0.0059,0.0371 -0.002,0.0371 -0.01563,0.29687 v 0.0371 0.0371 l 0.01563,0.29493 0.002,0.0371 0.0039,0.0371 0.04492,0.29297 0.0059,0.0371 0.0078,0.0352 0.07226,0.28906 0.0098,0.0352 0.01172,0.0351 0.09961,0.2793 0.01367,0.0352 0.01563,0.0332 0.126953,0.26953 0.01563,0.0332 0.01953,0.0312 0.152344,0.25586 0.01953,0.0312 0.02149,0.0293 0.175781,0.23828 0.02344,0.0293 0.02344,0.0273 0.199219,0.22071 0.02734,0.0273 0.02539,0.0254 0.220703,0.19922 0.02734,0.0234 0.0293,0.0234 0.238281,0.17578 0.03125,0.0215 0.03125,0.0215 0.253906,0.15235 0.03125,0.0176 0.0332,0.0156 0.269532,0.12695 0.0332,0.0156 0.03516,0.0137 0.279297,0.0996 0.03516,0.0117 0.03516,0.01 0.289063,0.0723 0.03516,0.008 0.03711,0.008 0.292968,0.043 0.03711,0.004 0.03711,0.004 0.296875,0.0137 0.03711,0.002 0.03711,-0.002 0.296875,-0.0137 0.03711,-0.004 0.03516,-0.004 0.294922,-0.043 0.03516,-0.008 0.03711,-0.008 0.287109,-0.0723 0.03711,-0.01 0.03516,-0.0117 0.279297,-0.0996 0.03516,-0.0137 0.0332,-0.0156 0.267578,-0.12695 0.0332,-0.0156 0.0332,-0.0176 0.253907,-0.15235 0.03125,-0.0215 0.03125,-0.0215 0.238281,-0.17578 0.0293,-0.0234 0.02734,-0.0234 0.21875,-0.19922 0.02734,-0.0254 0.02539,-0.0273 0.199219,-0.22071 0.02539,-0.0273 0.02148,-0.0293 0.177734,-0.23828 0.02148,-0.0293 0.01953,-0.0312 0.152343,-0.25586 0.01758,-0.0312 0.01758,-0.0332 0.126953,-0.26953 0.01563,-0.0332 0.01172,-0.0352 0.101562,-0.2793 0.01172,-0.0351 0.0098,-0.0352 0.07227,-0.28906 0.0078,-0.0352 0.0059,-0.0371 0.04297,-0.29297 0.0059,-0.0371 0.002,-0.0371 0.01563,-0.29688 v -0.0176 -0.0371 -0.0195 l -0.01563,-0.29492 -0.002,-0.0371 -0.0059,-0.0371 -0.04297,-0.29297 -0.0059,-0.0371 -0.0078,-0.0371 -0.07227,-0.28711 -0.0098,-0.0352 -0.01172,-0.0352 -0.101562,-0.28125 -0.01172,-0.0332 -0.01563,-0.0352 -0.126953,-0.26758 -0.01758,-0.0332 -0.01758,-0.0332 -0.152343,-0.25391 -0.01953,-0.0312 -0.02148,-0.0293 -0.177734,-0.23828 -0.02148,-0.0293 -0.02539,-0.0293 -0.199219,-0.21875 -0.02539,-0.0273 -0.02734,-0.0254 -0.21875,-0.19921 -0.02734,-0.0254 -0.0293,-0.0215 -0.238281,-0.177733 -0.03125,-0.02148 -0.03125,-0.01953 -0.16211,-0.09766 -0.0918,-24.857422 8.886719,-12.982422 h 23.773438 v -3.814453 h -24.779297 -0.01953 z"
       style="stroke-width:3.77953" />
    <path
       id="path1216"
       transform="matrix(0.26458333,0,0,-0.26458333,10.418,66.772788)"
       d="m 52.699219,53.253906 -29.675781,0.02344 h -0.01758 l -0.01953,0.002 h -0.002 -0.03711 l -0.03711,0.002 -0.01758,0.002 h -0.01953 l -0.03516,0.0039 -0.03711,0.0039 h -0.002 l -0.03711,0.0039 -0.03711,0.0059 -0.01758,0.0039 -0.01953,0.0039 -0.03516,0.0059 -0.03711,0.0078 h -0.002 l -0.03516,0.0078 -0.03711,0.0098 -0.01758,0.0059 -0.01758,0.0039 -0.03516,0.0098 -0.03516,0.01172 h -0.002 v 0.002 l -0.03516,0.0098 -0.03516,0.01367 -0.01758,0.0078 -0.01758,0.0059 -0.03516,0.01367 -0.0332,0.01367 v 0.002 h -0.002 l -0.0332,0.01367 -0.0332,0.01758 -0.01758,0.0078 -0.01563,0.0078 -0.0332,0.01758 -0.0332,0.01758 h -0.002 l -0.03125,0.01953 -0.03125,0.01953 -0.01563,0.0098 -0.01563,0.0098 -0.03125,0.01953 -0.03125,0.02148 -0.002,0.002 -0.0293,0.01953 -0.0293,0.02344 -0.01563,0.01172 -0.01367,0.01172 -0.0293,0.02148 -0.0293,0.02539 -0.0293,0.02344 -0.02734,0.02539 -0.01367,0.01367 -0.01367,0.01172 -0.02539,0.02734 -0.02734,0.02539 v 0.002 l -0.02539,0.02734 -0.02539,0.02734 -0.01172,0.01367 -0.01172,0.01367 -0.02539,0.0293 -0.02148,0.0293 h -0.002 l -0.01172,0.01563 -0.01172,0.01367 -14.4960936,19.201172 -0.00977,0.01367 -0.011719,0.01563 -0.00977,0.01563 -0.00977,0.01367 -0.021484,0.03125 -0.021484,0.03125 -0.00195,0.002 -0.019531,0.03125 -0.017578,0.03125 -0.00977,0.01563 -0.00781,0.01563 -0.019531,0.0332 -0.015625,0.0332 -0.00195,0.002 -0.017578,0.0332 -0.015625,0.0332 -0.00586,0.01758 -0.00781,0.01563 -0.015625,0.03516 -0.011719,0.0332 -0.00195,0.002 v 0.002 l -0.013672,0.0332 -0.011719,0.03516 -0.00586,0.01758 -0.00586,0.01758 -0.011719,0.03516 -0.00977,0.03516 v 0.002 0.002 l -0.011719,0.03516 -0.00781,0.03711 -0.00391,0.01563 -0.00391,0.01758 -0.00781,0.03711 -0.00586,0.03711 h -0.00195 v 0.002 l -0.00586,0.03711 -0.00586,0.03711 -0.00195,0.01758 -0.00195,0.01758 -0.00391,0.03711 -0.00391,0.03711 v 0.002 l -0.00195,0.03711 -0.00195,0.03711 v 0.01758 l -0.00195,0.01758 v 0.01953 0.01758 52.800784 0.0176 0.0156 l 0.00195,0.0293 0.00195,0.0371 0.00195,0.0254 0.00195,0.0254 0.00195,0.0371 0.00391,0.0312 0.00391,0.0293 0.00586,0.0371 0.00391,0.0254 0.00391,0.0254 0.00586,0.0371 0.00781,0.0293 0.00586,0.0312 0.00977,0.0352 0.00781,0.0254 0.00586,0.0254 0.00977,0.0352 0.00977,0.0293 0.00977,0.0293 0.011719,0.0352 0.00977,0.0234 0.00781,0.0234 0.013672,0.0352 0.013672,0.0293 0.011719,0.0273 0.015625,0.0332 0.011719,0.0234 0.011719,0.0234 0.015625,0.0332 0.015625,0.0254 0.015625,0.0273 0.017578,0.0332 0.015625,0.0215 0.011719,0.0215 0.021484,0.0312 0.017578,0.0254 0.017578,0.0254 0.021484,0.0293 0.015625,0.0195 0.015625,0.0215 0.021484,0.0293 0.021484,0.0234 0.019531,0.0234 0.025391,0.0273 0.017578,0.0176 0.017578,0.0195 0.025391,0.0273 0.021484,0.0215 0.021484,0.0215 0.029297,0.0234 0.019531,0.0176 0.017578,0.0176 0.029297,0.0234 0.023437,0.0195 0.025391,0.0176 0.029297,0.0234 0.021484,0.0137 0.019531,0.0156 0.03125,0.0215 0.025391,0.0156 0.025391,0.0176 0.033203,0.0195 0.021484,0.0117 0.021484,0.0137 0.033203,0.0176 0.025391,0.0137 0.011719,0.008 0.017578,0.008 6.7773441,3.34375 0.002,0.0195 0.0039,0.0371 0.04297,0.29296 0.0078,0.0371 0.0078,0.0352 0.07226,0.28906 0.0098,0.0352 0.01172,0.0351 0.09961,0.2793 0.01367,0.0352 0.01563,0.0332 0.126953,0.26953 0.01563,0.0332 0.01758,0.0312 0.152344,0.25586 0.02148,0.0312 0.02149,0.0293 0.175781,0.23828 0.02344,0.0293 0.02344,0.0273 0.199219,0.22071 0.02539,0.0273 0.02734,0.0254 0.220703,0.19922 0.02734,0.0234 0.0293,0.0234 0.238281,0.17579 0.0293,0.0215 0.03125,0.0215 0.255859,0.15235 0.03125,0.0176 0.0332,0.0176 0.269532,0.12696 0.0332,0.0137 0.03516,0.0137 0.279297,0.0996 0.03516,0.0117 0.03516,0.01 0.289063,0.0723 0.03516,0.008 0.03711,0.008 0.292968,0.043 0.03711,0.004 0.03711,0.004 0.296875,0.0137 0.03711,0.002 0.03711,-0.002 0.294922,-0.0137 0.03711,-0.004 0.03711,-0.004 0.292969,-0.043 0.03711,-0.008 0.03711,-0.008 0.287109,-0.0723 0.03516,-0.01 0.03516,-0.0117 0.28125,-0.0996 0.0332,-0.0137 0.03516,-0.0137 0.267578,-0.12696 0.0332,-0.0176 0.0332,-0.0176 0.253906,-0.15235 0.03125,-0.0215 0.0293,-0.0215 0.238281,-0.17579 0.0293,-0.0234 0.0293,-0.0234 0.21875,-0.19922 0.02734,-0.0254 0.02539,-0.0273 0.199219,-0.22071 0.02539,-0.0273 0.02148,-0.0293 0.177734,-0.23828 0.02148,-0.0293 0.01953,-0.0312 0.152344,-0.25586 0.01758,-0.0312 0.01758,-0.0332 0.126953,-0.26953 0.01563,-0.0332 0.01172,-0.0352 0.09961,-0.2793 0.01172,-0.0351 0.01172,-0.0352 0.07031,-0.28906 0.0098,-0.0352 0.0059,-0.0371 0.04297,-0.29296 0.0059,-0.0371 0.002,-0.0371 0.01563,-0.29688 v -0.0176 -0.0371 -0.0195 l -0.01563,-0.29492 -0.002,-0.0371 -0.0059,-0.0371 -0.04297,-0.29297 -0.0059,-0.0371 -0.0098,-0.0371 -0.07031,-0.28711 -0.01172,-0.0352 -0.01172,-0.0352 -0.09961,-0.27929 -0.01172,-0.0352 -0.01563,-0.0352 -0.126953,-0.26758 -0.01758,-0.0332 -0.01758,-0.0312 -0.152344,-0.25586 -0.01953,-0.0312 -0.02148,-0.0293 -0.177734,-0.23829 -0.02148,-0.0293 -0.02539,-0.0293 -0.199219,-0.21875 -0.02539,-0.0273 -0.02734,-0.0254 -0.21875,-0.19922 -0.0293,-0.0234 -0.0293,-0.0234 -0.238281,-0.17773 -0.0293,-0.0215 -0.03125,-0.0195 -0.253906,-0.15234 -0.0332,-0.0176 -0.0332,-0.0176 -0.267578,-0.12695 -0.03516,-0.0137 -0.0332,-0.0137 -0.28125,-0.0996 -0.03516,-0.0117 -0.03516,-0.01 L 19,128.19141 l -0.03711,-0.01 -0.03711,-0.006 -0.292969,-0.043 -0.03711,-0.006 -0.03711,-0.002 -0.294922,-0.0137 -0.03711,-0.002 -0.03711,0.002 -0.296875,0.0137 -0.03711,0.002 -0.03711,0.006 -0.292968,0.043 -0.03711,0.006 -0.03516,0.01 -0.289063,0.0723 -0.03516,0.01 -0.03516,0.0117 -0.279297,0.0996 -0.03516,0.0137 -0.0332,0.0137 -0.269532,0.12695 -0.0332,0.0176 -0.03125,0.0176 -0.255859,0.15234 -0.03125,0.0195 -0.0293,0.0215 -0.01953,0.0156 L 10.4375,126 V 75.025391 l 13.539062,-17.933594 28.722657,-0.02344 z"
       style="stroke-width:3.77953" />
    <path
       id="path56"
       transform="matrix(0.26458333,0,0,-0.26458333,10.418,66.772788)"
       d="m 18.111328,48.478516 -0.01953,0.002 h -0.02734 -0.02539 l -0.03711,0.002 -0.03125,0.0039 -0.0293,0.002 -0.03711,0.0039 -0.02539,0.0039 -0.02734,0.0039 -0.03711,0.0039 -0.02734,0.0059 -0.03125,0.0059 -0.03516,0.0078 -0.02734,0.0059 -0.02539,0.0059 -0.03516,0.0098 -0.0293,0.0078 -0.0293,0.0078 -0.03516,0.01172 -0.02539,0.0098 -0.02539,0.0078 -0.03516,0.01172 -0.02734,0.01172 -0.02734,0.0098 -0.0332,0.01563 -0.02539,0.01172 -0.02344,0.0098 -0.03516,0.01563 -0.02539,0.01367 -0.02734,0.01367 -0.03125,0.01758 -0.02344,0.01367 -0.02344,0.01367 -0.03125,0.01953 -0.02539,0.01563 -0.02539,0.01563 -0.03125,0.02148 -0.02148,0.01563 -0.02148,0.01562 -0.0293,0.02148 -0.02344,0.01953 -0.02344,0.01758 -0.02734,0.02539 -0.01953,0.01758 -0.02148,0.01758 -0.02734,0.02344 -0.02148,0.02148 -0.02148,0.01953 -0.02539,0.02734 -0.01758,0.01953 -0.01953,0.01953 -0.01172,0.01367 -0.01367,0.01367 -16.03124975,18.335938 -0.0117188,0.01367 -0.009766,0.01172 -0.0175781,0.01953 -0.0214844,0.0293 -0.0175781,0.02148 -0.015625,0.02148 -0.0214844,0.0293 -0.0175781,0.02539 -0.0175781,0.02344 -0.0195312,0.03125 -0.0136719,0.02344 -0.0136719,0.02344 -0.0195312,0.03125 -0.015625,0.02539 -0.0136719,0.02734 -0.0175781,0.0332 -0.009766,0.02344 -0.0136719,0.02344 -0.015625,0.0332 -0.0117188,0.02734 -0.0117187,0.02734 -0.0136719,0.03516 -0.009766,0.02539 -0.009766,0.02539 -0.0117188,0.03516 -0.009766,0.02734 -0.007813,0.0293 -0.009766,0.03516 -0.007813,0.02539 -0.005859,0.02539 -0.009766,0.03711 -0.005859,0.0293 -0.005859,0.0293 -0.007813,0.03516 -0.003906,0.02734 -0.003906,0.02734 -0.005859,0.03516 -0.003906,0.0293 -0.003906,0.0293 -0.001953,0.03711 -0.001953,0.02734 -0.001953,0.02734 -0.001953,0.03711 v 0.02734 0.01367 0.01758 l 0.001953,83.041017 v 0.0176 l 0.001953,0.0176 v 0.0137 0.0117 0.0371 l 0.003906,0.0371 v 0.008 0.006 l 0.003906,0.0371 0.003906,0.0371 0.001953,0.0117 0.001953,0.0137 0.003906,0.0351 0.005859,0.0371 0.001953,0.008 v 0.006 l 0.007813,0.0371 0.007813,0.0352 0.003906,0.0137 0.001953,0.0117 0.007813,0.0371 0.009766,0.0352 0.001953,0.006 0.001953,0.008 0.009766,0.0351 0.0117188,0.0352 0.003906,0.0117 0.003906,0.0117 0.0117188,0.0351 0.0136719,0.0352 0.001953,0.006 0.003906,0.006 0.0117188,0.0351 0.015625,0.0352 0.005859,0.01 0.003906,0.0117 0.015625,0.0352 0.0175781,0.0332 0.001953,0.006 0.003906,0.006 0.015625,0.0332 0.0195313,0.0332 0.005859,0.01 0.005859,0.0117 0.0175781,0.0312 0.0214844,0.0312 0.003906,0.006 0.001953,0.006 0.0214844,0.0312 0.0214844,0.0312 0.007813,0.01 0.005859,0.01 0.0214844,0.0312 0.0234375,0.0293 0.003906,0.004 0.003906,0.006 0.0234375,0.0293 0.0234375,0.0274 0.009766,0.01 0.007813,0.01 0.0234375,0.0273 0.0253906,0.0274 0.005859,0.006 0.003906,0.004 0.0253906,0.0273 0.0273438,0.0254 0.009766,0.008 0.007813,0.01 0.0273437,0.0254 0.0292969,0.0234 0.003906,0.004 0.005859,0.006 0.0273438,0.0234 0.0292969,0.0234 0.009766,0.008 0.009766,0.008 0.015625,0.0117 0.0136719,0.0117 51.73242212,38.12109 v -4.73828 L 4.0058594,150.79688 V 69.4375 L 18.996094,52.292969 H 52.699219 V 48.478516 H 18.128906 Z"
       style="stroke-width:3.77953" />
  </g>
</svg>
