<?xml version="1.0" encoding="UTF-8" standalone="no"?>
<svg
   xmlns:dc="http://purl.org/dc/elements/1.1/"
   xmlns:cc="http://creativecommons.org/ns#"
   xmlns:rdf="http://www.w3.org/1999/02/22-rdf-syntax-ns#"
   xmlns:svg="http://www.w3.org/2000/svg"
   xmlns="http://www.w3.org/2000/svg"
   xmlns:sodipodi="http://sodipodi.sourceforge.net/DTD/sodipodi-0.dtd"
   xmlns:inkscape="http://www.inkscape.org/namespaces/inkscape"
   width="70mm"
   height="70mm"
   viewBox="0 0 70 70"
   version="1.1"
   id="svg8"
   inkscape:version="1.0 (4035a4fb49, 2020-05-01)"
   sodipodi:docname="legend.svg">
  <defs
     id="defs2" />
  <sodipodi:namedview
     id="base"
     pagecolor="#ffffff"
     bordercolor="#666666"
     borderopacity="1.0"
     inkscape:pageopacity="0.0"
     inkscape:pageshadow="2"
     inkscape:zoom="0.35"
     inkscape:cx="400"
     inkscape:cy="560"
     inkscape:document-units="mm"
     inkscape:current-layer="layer1"
     inkscape:document-rotation="0"
     showgrid="false"
     fit-margin-top="0"
     fit-margin-left="0"
     fit-margin-right="0"
     fit-margin-bottom="0"
     inkscape:window-width="2560"
     inkscape:window-height="1374"
     inkscape:window-x="0"
     inkscape:window-y="0"
     inkscape:window-maximized="1" />
  <metadata
     id="metadata5">
    <rdf:RDF>
      <cc:Work
         rdf:about="">
        <dc:format>image/svg+xml</dc:format>
        <dc:type
           rdf:resource="http://purl.org/dc/dcmitype/StillImage" />
        <dc:title />
      </cc:Work>
    </rdf:RDF>
  </metadata>
  <g
     inkscape:label="Layer 1"
     inkscape:groupmode="layer"
     id="layer1"
     transform="translate(-55.910994,-29.167307)">
    <path
       id="rect833"
       style="fill:none;stroke:#000000;stroke-width:0.0956287"
       d="M 55.958808,29.215121 H 125.86318 V 99.119492 H 55.958808 Z" />
    <path
       id="path2111"
       d="m 118.01069,45.543913 h 1.26391"
       style="fill:none;stroke:#000000;stroke-width:0.000359368in;stroke-linecap:round;stroke-linejoin:round" />
    <path
       id="path4074"
       d="m 118.64265,44.914185 v 1.261681"
       style="fill:none;stroke:#000000;stroke-width:0.000359368in;stroke-linecap:round;stroke-linejoin:round" />
    <path
       id="path4076"
       d="m 120.60526,44.702793 h -0.70094 l -0.0712,0.631952 0.0712,-0.0712 0.20917,-0.06898 h 0.21139 l 0.2114,0.06898 0.13796,0.142411 0.0712,0.209168 v 0.140187 l -0.0712,0.21028 -0.13796,0.140187 -0.2114,0.07009 h -0.21139 l -0.20917,-0.07009 -0.0712,-0.07009 -0.069,-0.140187"
       style="fill:none;stroke:#000000;stroke-width:0.000359368in;stroke-linecap:round;stroke-linejoin:round" />
    <path
       id="path2117"
       d="m 122.14731,44.702793 -0.56075,1.473073"
       style="fill:none;stroke:#000000;stroke-width:0.000359368in;stroke-linecap:round;stroke-linejoin:round" />
    <path
       id="path4078"
       d="m 121.02582,44.702793 0.56074,1.473073"
       style="fill:none;stroke:#000000;stroke-width:0.000359368in;stroke-linecap:round;stroke-linejoin:round" />
    <path
       id="path2121"
       d="m 111.63358,52.323224 h 0.35766"
       style="fill:none;stroke:#000000;stroke-width:0.00036558in;stroke-linecap:round;stroke-linejoin:round" />
    <path
       id="path4599"
       d="m 111.99124,51.752787 -0.0724,-0.142609 -0.14261,-0.142609 -0.14261,-0.07244 h -0.28521 l -0.14261,0.07244 -0.14261,0.142609 -0.0724,0.142609 -0.0702,0.212782 v 0.357655 l 0.0702,0.212782 0.0724,0.143741 0.14261,0.14261 0.14261,0.0713 h 0.28521 l 0.14261,-0.0713 0.14261,-0.14261 0.0724,-0.143741 v -0.212782"
       style="fill:none;stroke:#000000;stroke-width:0.00036558in;stroke-linecap:round;stroke-linejoin:round" />
    <path
       id="path2127"
       d="m 113.48977,51.395132 v 1.498529"
       style="fill:none;stroke:#000000;stroke-width:0.00036558in;stroke-linecap:round;stroke-linejoin:round" />
    <path
       id="path2125"
       d="m 112.48924,51.395132 1.00053,1.498529"
       style="fill:none;stroke:#000000;stroke-width:0.00036558in;stroke-linecap:round;stroke-linejoin:round" />
    <path
       id="path4601"
       d="m 112.48924,51.395132 v 1.498529"
       style="fill:none;stroke:#000000;stroke-width:0.00036558in;stroke-linecap:round;stroke-linejoin:round" />
    <path
       id="path2131"
       d="m 114.05794,51.395132 h 0.50027 l 0.21504,0.07244 0.14035,0.142609 0.0724,0.142609 0.0724,0.212782 v 0.357655 l -0.0724,0.212782 -0.0724,0.143741 -0.14035,0.14261 -0.21504,0.0713 h -0.50027"
       style="fill:none;stroke:#000000;stroke-width:0.00036558in;stroke-linecap:round;stroke-linejoin:round" />
    <path
       id="path4603"
       d="m 114.05794,51.395132 v 1.498529"
       style="fill:none;stroke:#000000;stroke-width:0.00036558in;stroke-linecap:round;stroke-linejoin:round" />
    <path
       id="path2137"
       d="m 105.54387,74.361981 0.25983,-1.17861"
       style="font-style:normal;font-weight:normal;font-size:5px;font-family:OCRA;fill:none;fill-opacity:1;stroke:#000000;stroke-width:0.00047476in;stroke-linecap:round;stroke-linejoin:round" />
    <path
       id="path2135"
       d="m 105.3464,75.478232 -0.59035,-0.590344 -0.12888,-0.261916 V 74.49294 l 0.0624,-0.195395 0.13303,-0.133038 0.1954,-0.06236 h 0.13303 l 0.26191,0.128876 0.59035,0.590347"
       style="font-style:normal;font-weight:normal;font-size:5px;font-family:OCRA;fill:none;fill-opacity:1;stroke:#000000;stroke-width:0.00047476in;stroke-linecap:round;stroke-linejoin:round" />
    <path
       id="path6201"
       d="m 105.3464,75.478232 1.37608,-1.376085"
       style="font-style:normal;font-weight:normal;font-size:5px;font-family:OCRA;fill:none;fill-opacity:1;stroke:#000000;stroke-width:0.00047476in;stroke-linecap:round;stroke-linejoin:round" />
    <path
       id="path6203"
       d="m 104.29874,73.773715 -0.0665,0.06652 -0.1954,0.06236 h -0.13304 l -0.19539,-0.06236 -0.26191,-0.261911 -0.0665,-0.199551 0.002,-0.130959 0.0644,-0.193315 0.13304,-0.133035 0.19331,-0.06444 0.32843,-0.06652 h 1.30957 l -0.9167,-0.916694"
       style="font-style:normal;font-weight:normal;font-size:5px;font-family:OCRA;fill:none;fill-opacity:1;stroke:#000000;stroke-width:0.00047476in;stroke-linecap:round;stroke-linejoin:round" />
    <path
       id="path2143"
       d="m 117.28103,80.281104 h 0.88879"
       style="font-style:normal;font-weight:normal;font-size:5px;font-family:OCRA;fill:none;fill-opacity:1;stroke:#000000;stroke-width:0.000379733in;stroke-linecap:round;stroke-linejoin:round" />
    <path
       id="path7817"
       d="m 117.28103,78.72456 v 1.556544"
       style="font-style:normal;font-weight:normal;font-size:5px;font-family:OCRA;fill:none;fill-opacity:1;stroke:#000000;stroke-width:0.000379733in;stroke-linecap:round;stroke-linejoin:round" />
    <path
       id="path7819"
       d="m 118.46843,79.688583 h 0.88878 v -0.14813 l -0.0729,-0.148132 -0.0752,-0.07524 -0.14813,-0.07289 h -0.22337 l -0.14578,0.07289 -0.15048,0.150479 -0.0729,0.221023 v 0.148132 l 0.0729,0.222192 0.15048,0.148132 0.14578,0.07407 h 0.22337 l 0.14813,-0.07407 0.14813,-0.148132"
       style="font-style:normal;font-weight:normal;font-size:5px;font-family:OCRA;fill:none;fill-opacity:1;stroke:#000000;stroke-width:0.000379733in;stroke-linecap:round;stroke-linejoin:round" />
    <path
       id="path2149"
       d="m 120.69038,79.46756 -0.14813,-0.150479 -0.14813,-0.07289 h -0.22337 l -0.14578,0.07289 -0.15048,0.150479 -0.0729,0.221023 v 0.148132 l 0.0729,0.222192 0.15048,0.148132 0.14578,0.07407 h 0.22337 l 0.14813,-0.07407 0.14813,-0.148132"
       style="font-style:normal;font-weight:normal;font-size:5px;font-family:OCRA;fill:none;fill-opacity:1;stroke:#000000;stroke-width:0.000379733in;stroke-linecap:round;stroke-linejoin:round" />
    <path
       id="path7821"
       d="m 120.69038,78.72456 v 1.556544"
       style="font-style:normal;font-weight:normal;font-size:5px;font-family:OCRA;fill:none;fill-opacity:1;stroke:#000000;stroke-width:0.000379733in;stroke-linecap:round;stroke-linejoin:round" />
    <path
       id="path2153"
       d="m 122.24458,78.72456 -0.59252,1.556544"
       style="font-style:normal;font-weight:normal;font-size:5px;font-family:OCRA;fill:none;fill-opacity:1;stroke:#000000;stroke-width:0.000379733in;stroke-linecap:round;stroke-linejoin:round" />
    <path
       id="path7823"
       d="m 121.05954,78.72456 0.59252,1.556544"
       style="font-style:normal;font-weight:normal;font-size:5px;font-family:OCRA;fill:none;fill-opacity:1;stroke:#000000;stroke-width:0.000379733in;stroke-linecap:round;stroke-linejoin:round" />
    <path
       id="path2157"
       d="m 109.30657,86.151552 h 0.87561"
       style="font-style:normal;font-weight:normal;font-size:5px;font-family:OCRA;fill:none;fill-opacity:1;stroke:#000000;stroke-width:0.000374102in;stroke-linecap:round;stroke-linejoin:round" />
    <path
       id="path7278"
       d="m 109.30657,84.618082 v 1.53347"
       style="font-style:normal;font-weight:normal;font-size:5px;font-family:OCRA;fill:none;fill-opacity:1;stroke:#000000;stroke-width:0.000374102in;stroke-linecap:round;stroke-linejoin:round" />
    <path
       id="path7280"
       d="m 110.47636,85.567812 h 0.87561 v -0.14594 l -0.0718,-0.14593 -0.0741,-0.0741 -0.14594,-0.0718 h -0.22006 l -0.14362,0.0718 -0.14825,0.14825 -0.0718,0.21775 v 0.14593 l 0.0718,0.2189 0.14825,0.14594 0.14362,0.073 h 0.22006 l 0.14594,-0.073 0.14593,-0.14594"
       style="font-style:normal;font-weight:normal;font-size:5px;font-family:OCRA;fill:none;fill-opacity:1;stroke:#000000;stroke-width:0.000374102in;stroke-linecap:round;stroke-linejoin:round" />
    <path
       id="path2163"
       d="m 112.66538,85.350072 -0.14594,-0.14825 -0.14593,-0.0718 h -0.22006 l -0.14362,0.0718 -0.14825,0.14825 -0.0718,0.21774 v 0.14593 l 0.0718,0.21891 0.14825,0.14593 0.14362,0.073 h 0.22006 l 0.14593,-0.073 0.14594,-0.14593"
       style="font-style:normal;font-weight:normal;font-size:5px;font-family:OCRA;fill:none;fill-opacity:1;stroke:#000000;stroke-width:0.000374102in;stroke-linecap:round;stroke-linejoin:round" />
    <path
       id="path7282"
       d="m 112.66538,84.618082 v 1.53347"
       style="font-style:normal;font-weight:normal;font-size:5px;font-family:OCRA;fill:none;fill-opacity:1;stroke:#000000;stroke-width:0.000374102in;stroke-linecap:round;stroke-linejoin:round" />
    <path
       id="path2169"
       d="m 113.2468,85.350072 h 0.65786 l 0.21774,0.0718 0.0741,0.0718 0.0741,0.14825 v 0.21774 l -0.0741,0.14594 -0.0741,0.073 -0.21774,0.073 h -0.65786"
       style="font-style:normal;font-weight:normal;font-size:5px;font-family:OCRA;fill:none;fill-opacity:1;stroke:#000000;stroke-width:0.000374102in;stroke-linecap:round;stroke-linejoin:round" />
    <path
       id="path2167"
       d="m 113.2468,84.618082 h 0.65786 l 0.21774,0.0741 0.0741,0.0741 0.0741,0.14362 v 0.14825 l -0.0741,0.14362 -0.0741,0.0741 -0.21774,0.0741"
       style="font-style:normal;font-weight:normal;font-size:5px;font-family:OCRA;fill:none;fill-opacity:1;stroke:#000000;stroke-width:0.000374102in;stroke-linecap:round;stroke-linejoin:round" />
    <path
       id="path7284"
       d="m 113.2468,84.618082 v 1.53347"
       style="font-style:normal;font-weight:normal;font-size:5px;font-family:OCRA;fill:none;fill-opacity:1;stroke:#000000;stroke-width:0.000374102in;stroke-linecap:round;stroke-linejoin:round" />
    <path
       id="path2173"
       d="m 116.38358,72.836355 h 0.87561"
       style="font-style:normal;font-weight:normal;font-size:5px;font-family:OCRA;fill:none;fill-opacity:1;stroke:#000000;stroke-width:0.000374102in;stroke-linecap:round;stroke-linejoin:round" />
    <path
       id="path8383"
       d="m 116.38358,71.302888 v 1.533467"
       style="font-style:normal;font-weight:normal;font-size:5px;font-family:OCRA;fill:none;fill-opacity:1;stroke:#000000;stroke-width:0.000374102in;stroke-linecap:round;stroke-linejoin:round" />
    <path
       id="path8385"
       d="m 117.55338,72.252618 h 0.87561 v -0.145936 l -0.0718,-0.145934 -0.0741,-0.07413 -0.14593,-0.07181 h -0.22006 l -0.14362,0.07181 -0.14825,0.148252 -0.0718,0.217744 v 0.145933 l 0.0718,0.218904 0.14825,0.145933 0.14362,0.07297 h 0.22006 l 0.14593,-0.07297 0.14594,-0.145933"
       style="font-style:normal;font-weight:normal;font-size:5px;font-family:OCRA;fill:none;fill-opacity:1;stroke:#000000;stroke-width:0.000374102in;stroke-linecap:round;stroke-linejoin:round" />
    <path
       id="path2179"
       d="m 119.7424,72.034874 -0.14594,-0.148252 -0.14593,-0.07181 h -0.22006 l -0.14362,0.07181 -0.14825,0.148252 -0.0718,0.217744 v 0.145933 l 0.0718,0.218904 0.14825,0.145933 0.14362,0.07297 h 0.22006 l 0.14593,-0.07297 0.14594,-0.145933"
       style="font-style:normal;font-weight:normal;font-size:5px;font-family:OCRA;fill:none;fill-opacity:1;stroke:#000000;stroke-width:0.000374102in;stroke-linecap:round;stroke-linejoin:round" />
    <path
       id="path8387"
       d="m 119.7424,71.302888 v 1.533467"
       style="font-style:normal;font-weight:normal;font-size:5px;font-family:OCRA;fill:none;fill-opacity:1;stroke:#000000;stroke-width:0.000374102in;stroke-linecap:round;stroke-linejoin:round" />
    <path
       id="path2185"
       d="m 120.83574,72.034874 0.51193,0.801481"
       style="font-style:normal;font-weight:normal;font-size:5px;font-family:OCRA;fill:none;fill-opacity:1;stroke:#000000;stroke-width:0.000374102in;stroke-linecap:round;stroke-linejoin:round" />
    <path
       id="path2183"
       d="m 120.32382,71.302888 h 0.65786 l 0.21774,0.07413 0.0741,0.07412 0.0741,0.143621 v 0.148246 l -0.0741,0.143618 -0.0741,0.07413 -0.21774,0.07413 h -0.65786"
       style="font-style:normal;font-weight:normal;font-size:5px;font-family:OCRA;fill:none;fill-opacity:1;stroke:#000000;stroke-width:0.000374102in;stroke-linecap:round;stroke-linejoin:round" />
    <path
       id="path8389"
       d="m 120.32382,71.302888 v 1.533467"
       style="font-style:normal;font-weight:normal;font-size:5px;font-family:OCRA;fill:none;fill-opacity:1;stroke:#000000;stroke-width:0.000374102in;stroke-linecap:round;stroke-linejoin:round" />
    <path
       id="path2191"
       d="m 102.73674,84.350664 1.23626,-0.78964"
       style="font-style:normal;font-weight:normal;font-size:5px;font-family:OCRA;fill:none;fill-opacity:1;stroke:#000000;stroke-width:0.00057704in;stroke-linecap:round;stroke-linejoin:round" />
    <path
       id="path2189"
       d="m 101.60767,85.140294 v -1.01473 l 0.11433,-0.33587 0.11434,-0.11433 0.22153,-0.11434 h 0.22867 l 0.22153,0.11434 0.11434,0.11433 0.11433,0.33587 v 1.01473"
       style="font-style:normal;font-weight:normal;font-size:5px;font-family:OCRA;fill:none;fill-opacity:1;stroke:#000000;stroke-width:0.00057704in;stroke-linecap:round;stroke-linejoin:round" />
    <path
       id="path6752"
       d="M 101.60767,85.140294 H 103.973"
       style="font-style:normal;font-weight:normal;font-size:5px;font-family:OCRA;fill:none;fill-opacity:1;stroke:#000000;stroke-width:0.00057704in;stroke-linecap:round;stroke-linejoin:round" />
    <path
       id="path2195"
       d="M 101.60767,81.760224 H 103.973"
       style="font-style:normal;font-weight:normal;font-size:5px;font-family:OCRA;fill:none;fill-opacity:1;stroke:#000000;stroke-width:0.00057704in;stroke-linecap:round;stroke-linejoin:round" />
    <path
       id="path6754"
       d="m 101.60767,81.760224 1.57927,1.1255 V 81.19569"
       style="font-style:normal;font-weight:normal;font-size:5px;font-family:OCRA;fill:none;fill-opacity:1;stroke:#000000;stroke-width:0.00057704in;stroke-linecap:round;stroke-linejoin:round" />
    <path
       id="path2201"
       d="m 106.37779,67.796052 0.26834,-1.217168"
       style="font-style:normal;font-weight:normal;font-size:5px;font-family:OCRA;fill:none;fill-opacity:1;stroke:#000000;stroke-width:0.000490294in;stroke-linecap:round;stroke-linejoin:round" />
    <path
       id="path2199"
       d="m 106.17386,68.948818 -0.60965,-0.609658 -0.1331,-0.270481 v -0.137388 l 0.0644,-0.201787 0.13739,-0.13739 0.20179,-0.0644 h 0.13738 l 0.27048,0.133096 0.60966,0.609655"
       style="font-style:normal;font-weight:normal;font-size:5px;font-family:OCRA;fill:none;fill-opacity:1;stroke:#000000;stroke-width:0.000490294in;stroke-linecap:round;stroke-linejoin:round" />
    <path
       id="path5695"
       d="m 106.17386,68.948818 1.4211,-1.421103"
       style="font-style:normal;font-weight:normal;font-size:5px;font-family:OCRA;fill:none;fill-opacity:1;stroke:#000000;stroke-width:0.000490294in;stroke-linecap:round;stroke-linejoin:round" />
    <path
       id="path5697"
       d="m 104.68407,67.459023 -0.74276,-0.742751 0.94454,-0.137388 -0.20178,-0.201789 -0.0666,-0.203933 0.002,-0.135242 0.13309,-0.270481 0.13524,-0.135239 0.27156,-0.134168 0.26833,-0.0021 0.27156,0.136316 0.20393,0.203933 0.13417,0.269409 10e-4,0.136313 -0.0687,0.201787"
       style="font-style:normal;font-weight:normal;font-size:5px;font-family:OCRA;fill:none;fill-opacity:1;stroke:#000000;stroke-width:0.000490294in;stroke-linecap:round;stroke-linejoin:round" />
    <path
       id="path2207"
       d="M 117.77546,65.177839 V 64.035397"
       style="font-style:normal;font-weight:normal;font-size:5px;font-family:OCRA;fill:none;fill-opacity:1;stroke:#000000;stroke-width:0.000418375in;stroke-linecap:round;stroke-linejoin:round" />
    <path
       id="path5171"
       d="m 117.77546,64.607911 h 1.71496"
       style="font-style:normal;font-weight:normal;font-size:5px;font-family:OCRA;fill:none;fill-opacity:1;stroke:#000000;stroke-width:0.000418375in;stroke-linecap:round;stroke-linejoin:round" />
    <path
       id="path5173"
       d="m 118.83759,63.708983 v -0.979236 h -0.1632 l -0.16321,0.08031 -0.0829,0.0829 -0.0803,0.163206 v 0.246102 l 0.0803,0.160618 0.1658,0.165796 0.24351,0.08031 h 0.16321 l 0.24481,-0.08031 0.1632,-0.165796 0.0816,-0.160618 v -0.246102 l -0.0816,-0.163206 -0.1632,-0.163208"
       style="font-style:normal;font-weight:normal;font-size:5px;font-family:OCRA;fill:none;fill-opacity:1;stroke:#000000;stroke-width:0.000418375in;stroke-linecap:round;stroke-linejoin:round" />
    <path
       id="path2213"
       d="m 118.83759,62.159821 -0.24351,-0.0829 -0.1658,-0.163208 -0.0803,-0.163206 v -0.243512"
       style="font-style:normal;font-weight:normal;font-size:5px;font-family:OCRA;fill:none;fill-opacity:1;stroke:#000000;stroke-width:0.000418375in;stroke-linecap:round;stroke-linejoin:round" />
    <path
       id="path5175"
       d="m 118.34797,62.159821 h 1.14245"
       style="font-style:normal;font-weight:normal;font-size:5px;font-family:OCRA;fill:none;fill-opacity:1;stroke:#000000;stroke-width:0.000418375in;stroke-linecap:round;stroke-linejoin:round" />
    <path
       id="path2219"
       d="m 118.67439,60.198759 -0.24611,-0.246105 -0.0803,-0.160615 v -0.246102 l 0.0803,-0.163209 0.24611,-0.0829 h 0.81603"
       style="font-style:normal;font-weight:normal;font-size:5px;font-family:OCRA;fill:none;fill-opacity:1;stroke:#000000;stroke-width:0.000418375in;stroke-linecap:round;stroke-linejoin:round" />
    <path
       id="path2217"
       d="m 118.67439,61.097689 -0.24611,-0.246105 -0.0803,-0.163206 v -0.243514 l 0.0803,-0.165796 0.24611,-0.08031 h 0.81603"
       style="font-style:normal;font-weight:normal;font-size:5px;font-family:OCRA;fill:none;fill-opacity:1;stroke:#000000;stroke-width:0.000418375in;stroke-linecap:round;stroke-linejoin:round" />
    <path
       id="path5177"
       d="m 118.34797,61.097689 h 1.14245"
       style="font-style:normal;font-weight:normal;font-size:5px;font-family:OCRA;fill:none;fill-opacity:1;stroke:#000000;stroke-width:0.000418375in;stroke-linecap:round;stroke-linejoin:round" />
    <path
       id="path8961"
       d="m 79.039869,29.643818 -0.218515,0.110992 -0.218514,0.218514 -0.110992,0.218515 -0.107523,0.326038 v 0.548021 l 0.107523,0.326038 0.110992,0.220249 0.218514,0.218515 0.218515,0.109258 h 0.43703 l 0.218515,-0.109258 0.218515,-0.218515 0.110991,-0.220249 0.107523,-0.326038 V 30.517877 L 80.02492,30.191839 79.913929,29.973324 79.695414,29.75481 79.476899,29.643818 h -0.43703"
       style="fill:none;stroke:#000000;stroke-width:0.00044813in;stroke-linecap:round;stroke-linejoin:round" />
    <path
       id="path2107"
       d="m 82.428589,31.939958 c -0.328351,-0.43703 -0.656701,-0.87406 -0.985052,-1.311089"
       style="fill:none;stroke:#000000;stroke-width:0.00044813in;stroke-linecap:round;stroke-linejoin:round" />
    <path
       id="path2105"
       d="m 80.895516,31.17689 c 0.511024,-0.511024 1.022048,-1.022048 1.533073,-1.533072"
       style="fill:none;stroke:#000000;stroke-width:0.00044813in;stroke-linecap:round;stroke-linejoin:round" />
    <path
       id="path8963"
       d="m 80.895516,31.939958 c 0,-0.76538 0,-1.53076 0,-2.29614"
       style="fill:none;stroke:#000000;stroke-width:0.00044813in;stroke-linecap:round;stroke-linejoin:round" />
    <path
       id="path2235"
       d="m 84.939763,29.643818 v 2.29614"
       style="fill:none;stroke:#000000;stroke-width:0.00044813in;stroke-linecap:round;stroke-linejoin:round" />
    <path
       id="path2233"
       d="m 84.939763,29.643818 -0.874059,2.29614"
       style="fill:none;stroke:#000000;stroke-width:0.00044813in;stroke-linecap:round;stroke-linejoin:round" />
    <path
       id="path2231"
       d="m 83.191645,29.643818 0.874059,2.29614"
       style="fill:none;stroke:#000000;stroke-width:0.00044813in;stroke-linecap:round;stroke-linejoin:round" />
    <path
       id="path8965"
       d="m 83.191645,29.643818 v 2.29614"
       style="fill:none;stroke:#000000;stroke-width:0.00044813in;stroke-linecap:round;stroke-linejoin:round" />
    <path
       id="path2241"
       d="m 87.891444,30.73986 0.766535,1.200098"
       style="fill:none;stroke:#000000;stroke-width:0.00044813in;stroke-linecap:round;stroke-linejoin:round" />
    <path
       id="path2239"
       d="m 87.124906,29.643818 h 0.985052 l 0.326038,0.110992 0.110993,0.110991 0.11099,0.215047 v 0.221983 l -0.11099,0.215046 -0.110993,0.110992 -0.326038,0.110991 h -0.985052"
       style="fill:none;stroke:#000000;stroke-width:0.00044813in;stroke-linecap:round;stroke-linejoin:round" />
    <path
       id="path8967"
       d="m 87.124906,29.643818 v 2.29614"
       style="fill:none;stroke:#000000;stroke-width:0.00044813in;stroke-linecap:round;stroke-linejoin:round" />
    <path
       id="path8969"
       d="M 90.843133,29.973324 90.624619,29.75481 90.295112,29.643818 h -0.437031 l -0.326038,0.110992 -0.218514,0.218514 v 0.218515 l 0.107524,0.218515 0.11099,0.107523 0.218517,0.110992 0.655545,0.218515 0.218514,0.107523 0.107521,0.110991 0.110993,0.218515 v 0.327772 L 90.624619,31.8307 90.295112,31.939958 H 89.858081 L 89.532043,31.8307 89.313529,31.612185"
       style="fill:none;stroke:#000000;stroke-width:0.00044813in;stroke-linecap:round;stroke-linejoin:round" />
    <path
       id="path2247"
       d="m 92.591256,29.643818 v 2.29614"
       style="fill:none;stroke:#000000;stroke-width:0.00044813in;stroke-linecap:round;stroke-linejoin:round" />
    <path
       id="path8971"
       d="M 92.591256,29.643818 91.498683,31.17689 H 93.13928"
       style="fill:none;stroke:#000000;stroke-width:0.00044813in;stroke-linecap:round;stroke-linejoin:round" />
    <path
       id="path8973"
       d="m 94.228376,29.643818 -0.326041,0.110992 -0.11099,0.218514 v 0.218515 l 0.11099,0.218515 0.218517,0.107523 0.437028,0.110992 0.329507,0.110991 0.215045,0.215047 0.11099,0.221983 v 0.326038 l -0.11099,0.218515 -0.107521,0.109257 -0.329504,0.109258 H 94.228376 L 93.902335,31.8307 93.791345,31.721443 93.683821,31.502928 V 31.17689 l 0.107524,-0.221983 0.221983,-0.215047 0.326038,-0.110991 0.437031,-0.110992 0.218514,-0.107523 0.107521,-0.218515 V 29.973324 L 94.994911,29.75481 94.665407,29.643818 h -0.437031"
       style="fill:none;stroke:#000000;stroke-width:0.00044813in;stroke-linecap:round;stroke-linejoin:round" />
    <path
       id="path8975"
       d="m 97.180147,29.643818 h -1.092573 l -0.110993,0.985051 0.110993,-0.110992 0.326038,-0.107523 h 0.329504 l 0.32951,0.107523 0.215045,0.221983 0.11099,0.326038 v 0.218515 l -0.11099,0.327772 -0.215045,0.218515 -0.32951,0.109258 H 96.413612 L 96.087574,31.8307 95.976581,31.721443 95.86906,31.502928"
       style="fill:none;stroke:#000000;stroke-width:0.00044813in;stroke-linecap:round;stroke-linejoin:round" />
    <path
       id="path2255"
       d="m 100.56885,30.410354 -0.659015,1.529604"
       style="fill:none;stroke:#000000;stroke-width:0.00044813in;stroke-linecap:round;stroke-linejoin:round" />
    <path
       id="path8977"
       d="m 99.257756,30.410354 0.652079,1.529604"
       style="fill:none;stroke:#000000;stroke-width:0.00044813in;stroke-linecap:round;stroke-linejoin:round" />
    <path
       id="path8979"
       d="m 101.76893,29.643818 -0.32603,0.110992 -0.22199,0.326038 -0.10752,0.548021 v 0.326038 l 0.10752,0.548021 0.22199,0.327772 0.32603,0.109258 h 0.21852 l 0.3295,-0.109258 0.21505,-0.327772 0.11099,-0.548021 v -0.326038 l -0.11099,-0.548021 -0.21505,-0.326038 -0.3295,-0.110992 h -0.21852"
       style="fill:none;stroke:#000000;stroke-width:0.00044813in;stroke-linecap:round;stroke-linejoin:round" />
    <path
       id="path8981"
       d="m 103.40605,31.391936 -0.10752,0.110992 0.10752,0.109257 0.11099,-0.109257 -0.11099,-0.110992"
       style="fill:none;stroke:#000000;stroke-width:0.00044813in;stroke-linecap:round;stroke-linejoin:round" />
    <path
       id="path8983"
       d="m 104.50209,30.080848 0.21505,-0.107524 0.3295,-0.329506 v 2.29614"
       style="fill:none;stroke:#000000;stroke-width:0.00044813in;stroke-linecap:round;stroke-linejoin:round" />
  </g>
</svg>
