<?xml version="1.0" encoding="UTF-8" standalone="no"?>
<svg
   xmlns:dc="http://purl.org/dc/elements/1.1/"
   xmlns:cc="http://creativecommons.org/ns#"
   xmlns:rdf="http://www.w3.org/1999/02/22-rdf-syntax-ns#"
   xmlns:svg="http://www.w3.org/2000/svg"
   xmlns="http://www.w3.org/2000/svg"
   id="svg8"
   version="1.1"
   viewBox="0 0 70 70"
   height="70mm"
   width="70mm">
  <defs
     id="defs2" />
  <metadata
     id="metadata5">
    <rdf:RDF>
      <cc:Work
         rdf:about="">
        <dc:format>image/svg+xml</dc:format>
        <dc:type
           rdf:resource="http://purl.org/dc/dcmitype/StillImage" />
        <dc:title></dc:title>
      </cc:Work>
    </rdf:RDF>
  </metadata>
  <g
     id="silkscreen0">
    <path
       d="M 7.8164062,2.5585938 C 6.8498199,2.7126044 6.3609625,3.7204813 5.636364,4.2783339 4.6369299,5.315328 3.5162246,6.2509674 2.5878906,7.3476562 1.9592167,8.3521483 3.135902,9.7017588 4.2167969,9.2167969 5.1715447,8.6387083 5.8399439,7.6749136 6.6836025,6.948582 7.4760891,6.0796711 8.4746948,5.3710005 9.1418123,4.4034824 9.5629911,3.5230264 8.7862174,2.4419772 7.8164062,2.5585938 Z"
       style="fill:#ff0000;stroke:#ff0000;stroke-width:0.0816346;stroke-miterlimit:4;stroke-dasharray:none"
       id="path1005" />
    <path
       d="m 61.873047,2.4316406 c -1.202414,0.062113 -1.585645,1.8794542 -0.558772,2.4783265 1.501713,1.4168869 2.780979,3.1018099 4.459163,4.310736 C 66.92805,9.5786815 68.073679,7.9250348 67.076364,7.0663152 65.939391,5.7436403 64.602362,4.6066527 63.446003,3.2984993 63.009232,2.9039392 62.526803,2.3391477 61.873047,2.4316406 Z"
       style="fill:#ff0000;stroke:#ff0000;stroke-width:0.0816346;stroke-miterlimit:4;stroke-dasharray:none"
       id="path1003" />
    <path
       d="m 66.146484,60.699219 c -1.000523,0.168497 -1.505761,1.212303 -2.259213,1.791749 -0.977997,1.019644 -2.085434,1.930886 -2.98688,3.014891 -0.608044,1.007566 0.565224,2.333647 1.638671,1.853516 0.954655,-0.577531 1.623051,-1.542141 2.466806,-2.268215 0.788484,-0.864178 1.780306,-1.57097 2.448883,-2.529269 0.440833,-0.877054 -0.336491,-1.971266 -1.308267,-1.862672 z"
       style="fill:#ff0000;stroke:#ff0000;stroke-width:0.0816346;stroke-miterlimit:4;stroke-dasharray:none"
       id="path1001" />
    <path
       d="m 3.7617188,60.75 c -1.1330433,0.04139 -1.6365035,1.634839 -0.744397,2.329172 1.4519025,1.427742 2.8115785,2.964178 4.3186157,4.327078 C 8.340057,68.047314 9.7043717,66.870164 9.2167969,65.783203 8.6387083,64.828455 7.6749136,64.160056 6.948582,63.316397 6.0796711,62.523911 5.3710005,61.525305 4.4034824,60.858188 4.2040085,60.76914 3.979075,60.732876 3.7617188,60.75 Z"
       style="fill:#ff0000;stroke:#ff0000;stroke-width:0.0816346;stroke-miterlimit:4;stroke-dasharray:none"
       id="rect866" />
  </g>
</svg>
