G04 MADE WITH FRITZING*
G04 WWW.FRITZING.ORG*
G04 DOUBLE SIDED*
G04 HOLES PLATED*
G04 CONTOUR ON CENTER OF CONTOUR VECTOR*
%ASAXBY*%
%FSLAX23Y23*%
%MOIN*%
%OFA0B0*%
%SFA1.0B1.0*%
%ADD10C,0.175354*%
%ADD11C,0.084000*%
%ADD12C,0.072992*%
%ADD13C,0.090000*%
%ADD14C,0.074000*%
%ADD15C,0.085000*%
%ADD16R,0.072992X0.072992*%
%ADD17R,0.090000X0.090000*%
%ADD18R,0.074000X0.074000*%
%LNMASK1*%
G90*
G70*
G54D10*
X945Y2225D03*
X1927Y2225D03*
G54D11*
X1844Y2506D03*
X1744Y2506D03*
X1644Y2506D03*
X1544Y2506D03*
X1444Y2506D03*
X1499Y2391D03*
X1399Y2391D03*
X1344Y2506D03*
X1244Y2506D03*
X1144Y2506D03*
X1044Y2506D03*
X944Y2506D03*
X844Y2506D03*
X744Y2506D03*
X744Y1906D03*
X844Y1906D03*
X944Y1906D03*
X1044Y1906D03*
X1144Y1906D03*
X1244Y1906D03*
X1344Y1906D03*
X1444Y1906D03*
X1544Y1906D03*
X1644Y1906D03*
X1744Y1906D03*
X1844Y1906D03*
X744Y2206D03*
X1844Y2506D03*
X1744Y2506D03*
X1644Y2506D03*
X1544Y2506D03*
X1444Y2506D03*
X1499Y2391D03*
X1399Y2391D03*
X1344Y2506D03*
X1244Y2506D03*
X1144Y2506D03*
X1044Y2506D03*
X944Y2506D03*
X844Y2506D03*
X744Y2506D03*
X744Y1906D03*
X844Y1906D03*
X944Y1906D03*
X1044Y1906D03*
X1144Y1906D03*
X1244Y1906D03*
X1344Y1906D03*
X1444Y1906D03*
X1544Y1906D03*
X1644Y1906D03*
X1744Y1906D03*
X1844Y1906D03*
X744Y2206D03*
G54D12*
X600Y1555D03*
X600Y1455D03*
X600Y1355D03*
X600Y1255D03*
X2211Y1562D03*
X2211Y1462D03*
X2211Y1362D03*
X2211Y1262D03*
X600Y1555D03*
X600Y1455D03*
X600Y1355D03*
X600Y1255D03*
X2211Y1562D03*
X2211Y1462D03*
X2211Y1362D03*
X2211Y1262D03*
X600Y1555D03*
X600Y1455D03*
X600Y1355D03*
X600Y1255D03*
X2211Y1562D03*
X2211Y1462D03*
X2211Y1362D03*
X2211Y1262D03*
G54D13*
X1144Y656D03*
X1344Y656D03*
X1544Y656D03*
X1144Y656D03*
X1344Y656D03*
X1544Y656D03*
X2400Y1855D03*
X2400Y2055D03*
X2400Y1855D03*
X2400Y2055D03*
G54D14*
X1750Y205D03*
X1650Y205D03*
X1550Y205D03*
X1450Y205D03*
X1350Y205D03*
X1250Y205D03*
X1150Y205D03*
X1050Y205D03*
G54D12*
X2294Y357D03*
X2294Y456D03*
X2294Y657D03*
X2294Y756D03*
X2294Y957D03*
X2294Y1056D03*
G54D15*
X2450Y1655D03*
X2450Y1255D03*
X1800Y355D03*
X1800Y755D03*
X2127Y1123D03*
X1844Y1406D03*
X2077Y873D03*
X1794Y1156D03*
G54D16*
X2211Y1562D03*
X2211Y1562D03*
X2211Y1562D03*
G54D17*
X1144Y656D03*
X1144Y656D03*
X2400Y1855D03*
X2400Y1855D03*
G54D18*
X1750Y205D03*
G54D16*
X2294Y357D03*
X2294Y657D03*
X2294Y957D03*
G04 End of Mask1*
M02*