; NON-PLATED HOLES START AT T1
; THROUGH (PLATED) HOLES START AT T100
M48
INCH
T1C0.165354
T100C0.031497
T101C0.040000
T102C0.035000
%
T1
X009451Y022249
X019269Y022249
T100
X022106Y014624
X022944Y006574
X022944Y003574
X022106Y012624
X022944Y007558
X022106Y013624
X005998Y014546
X005998Y015546
X022944Y004558
X022944Y009574
X005998Y013546
X022106Y015624
X022944Y010558
X005998Y012546
T101
X014498Y002046
X013444Y019059
X011444Y025059
X008444Y019059
X007444Y022059
X016444Y025059
X013994Y023908
X010444Y025059
X007444Y019059
X015444Y006558
X011444Y019059
X014444Y019059
X023998Y020546
X011498Y002046
X009444Y019059
X023998Y018546
X012444Y025059
X016444Y019059
X010444Y019059
X018444Y019059
X012498Y002046
X017444Y025059
X007444Y025059
X018444Y025059
X011444Y006558
X008444Y025059
X013498Y002046
X017444Y019059
X012444Y019059
X013444Y006558
X016498Y002046
X014994Y023908
X010498Y002046
X015498Y002046
X013444Y025059
X014444Y025059
X015444Y025059
X009444Y025059
X017498Y002046
X015444Y019059
T102
X017944Y011559
X020772Y008730
X021272Y011230
X017998Y007546
X018444Y014059
X024498Y016546
X024498Y012546
X017998Y003546
T00
M30
