<?xml version="1.0" encoding="UTF-8" standalone="no"?>
<svg
   xmlns:dc="http://purl.org/dc/elements/1.1/"
   xmlns:cc="http://creativecommons.org/ns#"
   xmlns:rdf="http://www.w3.org/1999/02/22-rdf-syntax-ns#"
   xmlns:svg="http://www.w3.org/2000/svg"
   xmlns="http://www.w3.org/2000/svg"
   xmlns:sodipodi="http://sodipodi.sourceforge.net/DTD/sodipodi-0.dtd"
   xmlns:inkscape="http://www.inkscape.org/namespaces/inkscape"
   inkscape:version="1.0 (4035a4fb49, 2020-05-01)"
   width="61.416294mm"
   viewBox="0 0 174.09352 111.97743"
   version="1.2"
   x="0in"
   y="0in"
   height="39.503151mm"
   id="svg437"
   sodipodi:docname="text_only.svg">
  <metadata
     id="metadata443">
    <rdf:RDF>
      <cc:Work
         rdf:about="">
        <dc:format>image/svg+xml</dc:format>
        <dc:type
           rdf:resource="http://purl.org/dc/dcmitype/StillImage" />
        <dc:title></dc:title>
      </cc:Work>
    </rdf:RDF>
  </metadata>
  <defs
     id="defs441" />
  <sodipodi:namedview
     fit-margin-bottom="0"
     fit-margin-right="0"
     fit-margin-left="0"
     fit-margin-top="0"
     units="mm"
     inkscape:document-rotation="0"
     showguides="false"
     inkscape:snap-global="false"
     inkscape:current-layer="svg437"
     inkscape:window-maximized="1"
     inkscape:window-y="0"
     inkscape:window-x="0"
     showgrid="false"
     id="namedview439"
     inkscape:window-height="1374"
     inkscape:window-width="2560"
     inkscape:pageshadow="2"
     inkscape:pageopacity="0"
     guidetolerance="10"
     gridtolerance="10"
     objecttolerance="10"
     borderopacity="1"
     bordercolor="#666666"
     pagecolor="#ffffff" />
  <path
     d="m 165.69936,108.83367 -0.19743,-0.38869 -0.38868,-0.38868 -0.38869,-0.19743 h -0.77736 l -0.38869,0.19743 -0.38868,0.38868 -0.19743,0.38869 -0.19126,0.57994 v 0.97479 l 0.19126,0.57994 0.19743,0.39177 0.38868,0.38869 0.38869,0.19434 h 0.77736 l 0.38869,-0.19434 0.38868,-0.38869 0.19743,-0.39177 v -0.57994 m -0.9748,0 h 0.9748"
     style="fill:none;stroke:#000000;stroke-width:0.000715056in;stroke-linecap:round;stroke-linejoin:round;stroke-opacity:1"
     id="path12798" />
  <path
     d="m 167.05667,107.85887 v 4.08427 m 0,-4.08427 2.72696,4.08427 m 0,-4.08427 v 4.08427"
     style="fill:none;stroke:#000000;stroke-width:0.000715056in;stroke-linecap:round;stroke-linejoin:round;stroke-opacity:1"
     id="path12800" />
  <path
     d="m 171.33219,107.85887 v 4.08427 m 0,-4.08427 h 1.36348 l 0.58611,0.19743 0.38251,0.38868 0.19743,0.38869 0.19743,0.57994 v 0.97479 l -0.19743,0.57994 -0.19743,0.39177 -0.38251,0.38869 -0.58611,0.19434 h -1.36348"
     style="fill:none;stroke:#000000;stroke-width:0.000715056in;stroke-linecap:round;stroke-linejoin:round;stroke-opacity:1"
     id="path12802" />
  <path
     d="m 142.96197,82.223945 v 4.252562 m -2.13004,-2.130031 h 4.26007"
     style="fill:none;stroke:#000000;stroke-width:0.08325;stroke-linecap:round;stroke-linejoin:round;stroke-miterlimit:4;stroke-dasharray:none;stroke-opacity:1"
     id="path12244" />
  <path
     d="m 149.57706,81.511434 h -2.36253 l -0.24001,2.130031 0.24001,-0.240003 0.70501,-0.232504 h 0.71251 l 0.71251,0.232504 0.46501,0.480007 0.24,0.70501 v 0.472507 l -0.24,0.708761 -0.46501,0.472507 -0.71251,0.236253 h -0.71251 l -0.70501,-0.236253 -0.24001,-0.236254 -0.2325,-0.472507"
     style="fill:none;stroke:#000000;stroke-width:0.08325;stroke-linecap:round;stroke-linejoin:round;stroke-miterlimit:4;stroke-dasharray:none;stroke-opacity:1"
     id="path12246" />
  <path
     d="m 150.99458,81.511434 1.89003,4.965073 m 1.89003,-4.965073 -1.89003,4.965073"
     style="fill:none;stroke:#000000;stroke-width:0.08325;stroke-linecap:round;stroke-linejoin:round;stroke-miterlimit:4;stroke-dasharray:none;stroke-opacity:1"
     id="path12248" />
  <path
     d="M 0.2874818,0.05789088 V 6.9467099"
     style="fill:none;stroke:#000000;stroke-width:0.00120606in;stroke-linecap:round;stroke-linejoin:round;stroke-opacity:1"
     id="path9585" />
  <path
     d="m 2.9098129,2.3576326 v 4.5890773 m 0,-3.2779123 0.988576,-0.9885768 0.655582,-0.3225882 h 0.978171 l 0.665989,0.3225882 0.322588,0.9885768 v 3.2779123"
     style="fill:none;stroke:#000000;stroke-width:0.00120606in;stroke-linecap:round;stroke-linejoin:round;stroke-opacity:1"
     id="path9587" />
  <path
     d="M 9.1326449,3.9913858 H 15.043293"
     style="fill:none;stroke:#000000;stroke-width:0.00120606in;stroke-linecap:round;stroke-linejoin:round;stroke-opacity:1"
     id="path9589" />
  <path
     d="m 0.054756,27.771723 v 6.515775"
     style="fill:none;stroke:#000000;stroke-width:0.00114075in;stroke-linecap:round;stroke-linejoin:round;stroke-opacity:1"
     id="path10602" />
  <path
     d="m 2.5350809,29.946929 v 4.340569 m 0,-3.100406 0.935043,-0.935044 0.620081,-0.305119 h 0.925201 l 0.629924,0.305119 0.305119,0.935044 v 3.100406"
     style="fill:none;stroke:#000000;stroke-width:0.00114075in;stroke-linecap:round;stroke-linejoin:round;stroke-opacity:1"
     id="path10604" />
  <path
     d="m 11.216218,28.706766 v 5.580732 M 8.4209309,31.492211 h 5.5905741"
     style="fill:none;stroke:#000000;stroke-width:0.00114075in;stroke-linecap:round;stroke-linejoin:round;stroke-opacity:1"
     id="path10606" />
  <path
     d="m 72.079654,39.857901 h 9.088"
     style="fill:none;stroke:#000000;stroke-width:0.0018544in;stroke-linecap:round;stroke-linejoin:round;stroke-opacity:1"
     id="path9327" />
  <path
     d="m 91.231654,39.857901 h 9.087996"
     style="fill:none;stroke:#000000;stroke-width:0.0018544in;stroke-linecap:round;stroke-linejoin:round;stroke-opacity:1"
     id="path9329" />
  <path
     d="m 110.38365,35.329901 8.064,4.528 -8.064,4.544"
     style="fill:none;stroke:#000000;stroke-width:0.0018544in;stroke-linecap:round;stroke-linejoin:round;stroke-opacity:1"
     id="path9331" />
  <g
     id="g8150"
     partID="854755590"
     transform="translate(-41.737049,-0.90963893)"
     style="fill:none;stroke:#000000;stroke-opacity:1">
    <path
       id="path8829"
       style="fill:none;stroke:#000000;stroke-width:0.0018544in;stroke-linecap:round;stroke-linejoin:round;stroke-opacity:1"
       d="m 113.937,22.9387 v 10.592 m 0,-10.592 4.032,10.592 m 4.032,-10.592 -4.032,10.592 m 4.032,-10.592 v 10.592" />
    <path
       id="path8831"
       style="fill:none;stroke:#000000;stroke-width:0.0018544in;stroke-linecap:round;stroke-linejoin:round;stroke-opacity:1"
       d="m 126.033,25.4667 v -0.512 l 0.512,-0.992 0.512,-0.512 0.992,-0.512 h 2.016 l 1.024,0.512 0.496,0.512 0.496,0.992 v 1.024 l -0.496,0.992 -1.008,1.52 -5.04,5.04 h 7.056" />
    <path
       id="path8833"
       style="fill:none;stroke:#000000;stroke-width:0.0018544in;stroke-linecap:round;stroke-linejoin:round;stroke-opacity:1"
       d="m 141.665,22.9387 h -5.04 l -0.512,4.544 0.512,-0.512 1.504,-0.496 h 1.52 l 1.52,0.496 0.992,1.024 0.512,1.504 v 1.008 l -0.512,1.512 -0.992,1.008 -1.52,0.504 h -1.52 l -1.504,-0.504 -0.512,-0.504 -0.496,-1.008" />
    <path
       id="path8835"
       style="fill:none;stroke:#000000;stroke-width:0.0018544in;stroke-linecap:round;stroke-linejoin:round;stroke-opacity:1"
       d="m 152.241,26.4747 -0.496,1.52 -1.008,0.992 -1.504,0.512 h -0.512 l -1.504,-0.512 -1.024,-0.992 -0.496,-1.52 v -0.496 l 0.496,-1.52 1.024,-1.008 1.504,-0.512 h 0.512 l 1.504,0.512 1.008,1.008 0.496,2.016 v 2.512 l -0.496,2.528 -1.008,1.512 -1.504,0.504 h -1.024 l -1.504,-0.504 -0.512,-1.008" />
    <path
       id="path8837"
       style="fill:none;stroke:#000000;stroke-width:0.0018544in;stroke-linecap:round;stroke-linejoin:round;stroke-opacity:1"
       d="m 162.321,24.4587 -0.496,-1.008 -1.52,-0.512 h -0.992 l -1.52,0.512 -1.008,1.504 -0.512,2.528 v 2.528 l 0.512,2.008 1.008,1.008 1.52,0.504 h 0.496 l 1.52,-0.504 0.992,-1.008 0.512,-1.512 v -0.496 l -0.512,-1.52 -0.992,-1.008 -1.52,-0.512 h -0.496 l -1.52,0.512 -1.008,1.008 -0.512,1.52" />
  </g>
  <path
     d="m 27.56575,91.534313 v 4.340896 l -0.267,0.818225 -0.266999,0.271306 -0.551225,0.271306 h -0.533999 l -0.551225,-0.271306 -0.267,-0.271306 -0.266999,-0.818225 V 95.34121"
     style="font-style:normal;font-weight:normal;font-size:5px;font-family:OCRA;fill:none;fill-opacity:1;stroke:#000000;stroke-width:0.000998234in;stroke-linecap:round;stroke-linejoin:round;stroke-opacity:1"
     id="path11185" />
  <path
     d="m 29.736197,93.437762 v 2.71306 l 0.275612,0.813918 0.542612,0.271306 h 0.818225 l 0.533999,-0.271306 0.818225,-0.813918 m 0,-2.71306 v 3.798284"
     style="font-style:normal;font-weight:normal;font-size:5px;font-family:OCRA;fill:none;fill-opacity:1;stroke:#000000;stroke-width:0.000998234in;stroke-linecap:round;stroke-linejoin:round;stroke-opacity:1"
     id="path11187" />
  <path
     d="m 34.886704,93.437762 v 3.798284 m 0,-2.71306 0.818224,-0.818225 0.542612,-0.266999 h 0.809612 l 0.551225,0.266999 0.267,0.818225 v 2.71306 m 0,-2.71306 0.818224,-0.818225 0.533999,-0.266999 h 0.818225 l 0.542612,0.266999 0.275612,0.818225 v 2.71306"
     style="font-style:normal;font-weight:normal;font-size:5px;font-family:OCRA;fill:none;fill-opacity:1;stroke:#000000;stroke-width:0.000998234in;stroke-linecap:round;stroke-linejoin:round;stroke-opacity:1"
     id="path11189" />
  <path
     d="m 43.025882,93.437762 v 5.693116 m 0,-4.874892 0.551225,-0.551225 0.533999,-0.266999 h 0.818224 l 0.542613,0.266999 0.542612,0.551225 0.266999,0.809612 v 0.542612 l -0.266999,0.813918 -0.542612,0.542612 -0.542613,0.271306 H 44.111106 L 43.577107,96.96474 43.025882,96.422128"
     style="font-style:normal;font-weight:normal;font-size:5px;font-family:OCRA;fill:none;fill-opacity:1;stroke:#000000;stroke-width:0.000998234in;stroke-linecap:round;stroke-linejoin:round;stroke-opacity:1"
     id="path11191" />
  <path
     d="m 47.909389,95.065598 h 3.255673 v -0.542612 l -0.267,-0.542612 -0.275612,-0.275613 -0.542613,-0.266999 h -0.818224 l -0.533999,0.266999 -0.551225,0.551225 -0.267,0.809612 v 0.542612 l 0.267,0.813918 0.551225,0.542612 0.533999,0.271306 h 0.818224 l 0.542613,-0.271306 0.542612,-0.542612"
     style="font-style:normal;font-weight:normal;font-size:5px;font-family:OCRA;fill:none;fill-opacity:1;stroke:#000000;stroke-width:0.000998234in;stroke-linecap:round;stroke-linejoin:round;stroke-opacity:1"
     id="path11193" />
  <path
     d="m 53.059896,93.437762 v 3.798284 m 0,-2.170448 0.275612,-0.809612 0.542612,-0.551225 0.542612,-0.266999 h 0.809612"
     style="font-style:normal;font-weight:normal;font-size:5px;font-family:OCRA;fill:none;fill-opacity:1;stroke:#000000;stroke-width:0.000998234in;stroke-linecap:round;stroke-linejoin:round;stroke-opacity:1"
     id="path11195" />
  <path
     d="m 57.142404,92.619537 0.533999,-0.267 0.818224,-0.818224 v 5.701733"
     style="font-style:normal;font-weight:normal;font-size:5px;font-family:OCRA;fill:none;fill-opacity:1;stroke:#000000;stroke-width:0.000998234in;stroke-linecap:round;stroke-linejoin:round;stroke-opacity:1"
     id="path11197" />
  <path
     d="m 79.901113,92.969282 v 7.206338 m -2.394855,-7.206338 h 4.800596"
     style="font-style:normal;font-weight:normal;font-size:5px;font-family:OCRA;fill:none;fill-opacity:1;stroke:#000000;stroke-width:0.225;stroke-linecap:round;stroke-linejoin:round;stroke-miterlimit:4;stroke-dasharray:none;stroke-opacity:1"
     id="path11754" />
  <path
     d="m 83.678453,97.432421 h 4.114796 v -0.685799 l -0.337457,-0.6858 -0.348342,-0.348342 -0.6858,-0.337457 h -1.034142 l -0.674913,0.337457 -0.696686,0.696685 -0.337456,1.023256 v 0.685799 l 0.337456,1.028698 0.696686,0.6858 0.674913,0.342902 h 1.034142 l 0.6858,-0.342902 0.685799,-0.6858"
     style="font-style:normal;font-weight:normal;font-size:5px;font-family:OCRA;fill:none;fill-opacity:1;stroke:#000000;stroke-width:0.225;stroke-linecap:round;stroke-linejoin:round;stroke-miterlimit:4;stroke-dasharray:none;stroke-opacity:1"
     id="path11756" />
  <path
     d="m 90.188104,95.375023 v 4.800597 m 0,-2.743199 0.348343,-1.023256 0.685799,-0.696685 0.685799,-0.337457 h 1.023258"
     style="font-style:normal;font-weight:normal;font-size:5px;font-family:OCRA;fill:none;fill-opacity:1;stroke:#000000;stroke-width:0.225;stroke-linecap:round;stroke-linejoin:round;stroke-miterlimit:4;stroke-dasharray:none;stroke-opacity:1"
     id="path11758" />
  <path
     d="m 94.651243,95.375023 v 4.800597 m 0,-3.428998 1.03414,-1.034142 0.6858,-0.337457 h 1.02326 l 0.69668,0.337457 0.33746,1.034142 v 3.428998 m 0,-3.428998 1.03414,-1.034142 0.674917,-0.337457 h 1.03414 l 0.6858,0.337457 0.34834,1.034142 v 3.428998"
     style="font-style:normal;font-weight:normal;font-size:5px;font-family:OCRA;fill:none;fill-opacity:1;stroke:#000000;stroke-width:0.225;stroke-linecap:round;stroke-linejoin:round;stroke-miterlimit:4;stroke-dasharray:none;stroke-opacity:1"
     id="path11760" />
  <path
     id="path8827-9"
     style="fill:none;stroke:#000000;stroke-width:0.0018544in;stroke-linecap:round;stroke-linejoin:round;stroke-opacity:1"
     d="m 64.787208,21.868354 v 10.592001 m 0,0 h 6.048" />
</svg>
